<svg width="50" height="50" viewBox="0 0 50 50" fill="none" xmlns="http://www.w3.org/2000/svg">
<path d="M33.2104 37.4229C33.6896 33.5083 31.1687 31.0125 24.5125 28.8875C21.2875 27.7875 19.7687 26.3458 19.8042 24.3646C19.9396 22.1646 21.9875 20.5625 24.7042 20.5104C26.8438 20.5323 28.9308 21.1766 30.7104 22.3646C30.9521 22.5146 31.1208 22.4896 31.2583 22.2812C31.4458 21.9812 31.9146 21.2542 32.0708 20.9896C32.1771 20.8229 32.1979 20.6021 31.9292 20.4062C31.5438 20.1208 30.4625 19.5417 29.8813 19.2979C28.2264 18.5957 26.4477 18.2316 24.65 18.2271C20.6708 18.2437 17.5396 20.7583 17.275 24.1146C17.1062 26.5375 18.3063 28.5042 20.8792 30.0042C21.4271 30.3208 24.3792 31.4958 25.5542 31.8625C29.25 33.0125 31.1688 35.075 30.7167 37.4812C30.3063 39.6625 28.0104 41.0729 24.8458 41.1146C22.3396 41.0187 20.0812 39.9958 18.3312 38.6354L18.0375 38.4062C17.8208 38.2396 17.5833 38.25 17.4396 38.4687C17.3354 38.6292 16.6563 39.6083 16.4854 39.8646C16.325 40.0896 16.4125 40.2146 16.5792 40.3521C17.3083 40.9625 18.2813 41.6292 18.9417 41.9667C20.7712 42.8982 22.7834 43.4153 24.8354 43.4812C26.3128 43.5512 27.7877 43.2995 29.1583 42.7437C31.4396 41.775 32.9146 39.8396 33.2104 37.4229ZM25 2.91875C20.6917 2.91875 17.1792 6.98125 17.0146 12.0646H32.9833C32.8146 6.97917 29.3042 2.91667 25 2.91667V2.91875ZM41.3562 49.9979L41.1896 50L8.30625 49.9958C6.06875 49.9125 4.425 48.1 4.2 45.8479L4.17917 45.4417L2.70625 13.0958C2.69629 12.9658 2.71302 12.8352 2.75542 12.7119C2.79782 12.5885 2.86498 12.4752 2.95279 12.3788C3.04059 12.2824 3.14718 12.205 3.26601 12.1513C3.38483 12.0977 3.51338 12.0688 3.64375 12.0667H14.0083C14.2604 5.35 19.0833 0 25 0C30.9125 0 35.7354 5.35208 35.9896 12.0625H46.3396C46.4693 12.0626 46.5976 12.0891 46.7168 12.1404C46.836 12.1917 46.9434 12.2666 47.0327 12.3608C47.122 12.4549 47.1911 12.5662 47.236 12.6879C47.2809 12.8096 47.3005 12.9392 47.2937 13.0687L45.6833 45.5437L45.6687 45.8167C45.4729 48.0958 43.6292 49.9354 41.3562 49.9958V49.9979Z" fill="#EE4D2D"/>
</svg>
