<svg xmlns="http://www.w3.org/2000/svg" width="537" height="235"><g data-name="Layer 2"><g data-name="Layer 1"><path d="M12.006 10A2 2 0 0010 11.992v11.016A1.992 1.992 0 0012.006 25H17V10z" fill="#43458b"/><path d="M24 10v15h4.994A2 2 0 0031 23.008V11.992A1.992 1.992 0 0028.994 10z" fill="#e25950"/><path data-name="Rectangle-295" fill="#fcd669" d="M17 10h7v15h-7z"/><path d="M18 18v.5a2.5 2.5 0 002.5 2.5v-3zm2.5-3H23v3h-2.5z" fill="#e25950"/><path fill="#f6f9fc" d="M18 15h2.5v3H18zm2.5 6a2.5 2.5 0 002.5-2.5V18h-2.5z"/></g></g><g data-name="Layer 2"><g data-name="Layer 1"><path d="M43.005 10A2 2 0 0041 11.992v11.016A1.996 1.996 0 0043.005 25H46V10z" fill="#e25950"/><path d="M46 10v5h16v-2.995A2 2 0 0060.006 10z" fill="#24b47e"/><path fill="#f6f9fc" d="M46 15h16v5H46z"/><path data-name="Rectangle-34" d="M46 20v5h14.006A1.997 1.997 0 0062 22.995V20z" fill="#333"/><path fill="#eaeef3" d="M60.999 15H62v5h-1.001z"/></g></g><g data-name="Layer 2"><g data-name="Layer 1"><path d="M93 12a2 2 0 00-2-2H74a2 2 0 00-2 2v3h21z"/><path d="M74.491 10A2.49 2.49 0 0072 12.5V15h21v-2.5a2.505 2.505 0 00-2.491-2.5z"/><path fill="#45b2e8" d="M72 15h21v5H72z"/><path data-name="Rectangle-34" d="M72 19v3a3 3 0 003 3h15a3 3 0 003-3v-3z" fill="#f6f9fc"/><path d="M79.035 15a3.5 3.5 0 016.93 0z" fill="#fcd669"/><path d="M91.19 15l-8.418 9.16a1 1 0 01-1.504-.036L73.645 15 72 13.03V23a2 2 0 002 2h17a2 2 0 002-2v-9.97z" fill="#e25950"/></g></g><g data-name="Layer 2"><g data-name="Layer 1"><path d="M104.995 10A1.997 1.997 0 00103 12.005V15h21v-2.995A2.006 2.006 0 00122.005 10z" fill="#e25950"/><path fill="#555abf" d="M103 15h21v5h-21z"/><path data-name="Rectangle-34" d="M103 20v2.995A2.006 2.006 0 00104.995 25h17.01A1.997 1.997 0 00124 22.995V20z" fill="#fcd669"/></g></g><g data-name="Layer 2"><g data-name="Layer 1"><path d="M135.995 10A1.997 1.997 0 00134 12.005V15h21v-2.995A2.006 2.006 0 00153.005 10z" fill="#45b2e8"/><path fill="#f6f9fc" d="M134 15h21v5h-21z"/><path fill="#eaeef3" d="M134 15h1.001v5H134zm19.999 0H155v5h-1.001z"/><path data-name="Rectangle-34" d="M134 20v2.995A2.006 2.006 0 00135.995 25h17.01A1.997 1.997 0 00155 22.995V20z" fill="#45b2e8"/><circle cx="144.5" cy="17.5" r="1.5" fill="#f4b32e"/></g></g><g data-name="Layer 2"><g data-name="Layer 1"><path d="M166.995 10A1.997 1.997 0 00165 12.005V15h21v-2.995A2.006 2.006 0 00184.005 10z" fill="#e25950"/><path fill="#f6f9fc" d="M165 15h21v5h-21z"/><path fill="#eaeef3" d="M165 15h1.001v5H165zm19.999 0H186v5h-1.001z"/><path data-name="Rectangle-34" d="M165 20v2.995A2.006 2.006 0 00166.995 25h17.01A1.997 1.997 0 00186 22.995V20z" fill="#e25950"/></g></g><g data-name="Layer 2"><g data-name="Layer 1"><path d="M198 10h17a2 2 0 012 2v11a2 2 0 01-2 2h-17a2 2 0 01-2-2V12a2 2 0 012-2z" fill="#43458b"/><path data-name="Shape" d="M196 15.664l3.498-2.4.001-.001h.002v.001l5.425 3.722h-1.767l-3.659-2.51-3.5 2.401zm9-5.569v1.213l-3.499 2.4-.001.001-.001-.001-4.758-3.264a1.983 1.983 0 011.121-.444l3.638 2.496z" fill="#f6f9fc"/><path data-name="Shape" d="M204.909 17l-3.659-2.51-3.659 2.51H196v-.121l5.248-3.601.001-.001h.002v.001L205 15.85V17zm-5.158-3.278v.001h-.002v-.001l-3.601-2.47a1.99 1.99 0 01.601-.801l3.001 2.059 3.659-2.51H205v.121z" fill="#e25950"/><path data-name="Shape" fill="#f6f9fc" d="M205 14.625h-3.375V17h-2.25v-2.375H196v-2.25h3.375V10h2.25v2.375H205v2.25z"/><path data-name="Shape" fill="#e25950" d="M205 13.998h-4V17h-1v-3.002h-4v-.996h4V10h1v3.002h4v.996z"/><path data-name="Shape" d="M213.24 16.5a.75.75 0 11.75-.75.75.75 0 01-.75.75zm-1.25 3a.5.5 0 11.5-.5.5.5 0 01-.5.5zm-1.25-5a.75.75 0 11.75-.75.75.75 0 01-.75.75zm-3 3a.75.75 0 11.75-.75.75.75 0 01-.75.75zm3 4a.75.75 0 11-.75.75.75.75 0 01.75-.75zm-10.75 1.023l-.684.653a.179.179 0 01-.3-.149l.068-.959-.922-.146a.186.186 0 01-.074-.334l.77-.544-.465-.834a.182.182 0 01.207-.268l.892.282.343-.895a.176.176 0 01.332 0l.343.895.892-.282a.182.182 0 01.207.268l-.465.834.77.544a.186.186 0 01-.074.334l-.922.146.068.959a.179.179 0 01-.3.149z" fill="#f6f9fc"/></g></g><g fill="none"><rect width="21" height="15" rx="2" fill="#159570" x="227" y="10"/><path d="M235.5 13a4.5 4.5 0 110 9 4.5 4.5 0 010-9z" fill="#E25950"/></g><g data-name="Layer 2"><g data-name="Layer 1"><path fill="#fcd669" d="M264 10h9v15h-9V10z"/><path data-name="Shape" d="M260 10h5v15h-5a2 2 0 01-2-2V12a2 2 0 012-2z" fill="#333"/><path data-name="Shape" d="M277 25h-5V10h5a2 2 0 012 2v11a2 2 0 01-2 2z" fill="#e25950"/></g></g><g data-name="Layer 2"><g data-name="Layer 1"><path d="M290.995 10A1.991 1.991 0 00289 11.998V18h21v-6.002A2.002 2.002 0 00308.005 10z" fill="#e25950"/><path data-name="Rectangle-295" d="M289 18v4.994A2.006 2.006 0 00290.995 25h17.01A1.993 1.993 0 00310 22.994V18z" fill="#24b47e"/><path fill="#fcd669" d="M299.5 19.55l-2.645 1.591.705-2.946-2.34-2.186 2.957-.129L299.5 13l1.323 2.88 2.957.129-2.34 2.186.705 2.946-2.645-1.591z"/></g></g><g data-name="Layer 2"><g data-name="Layer 1"><path d="M321.995 10A1.999 1.999 0 00320 11.998V16h21v-4.002A2.002 2.002 0 00339.005 10z" fill="#f6f9fc"/><path d="M320.5 15.5h20v-3.502a1.502 1.502 0 00-1.495-1.498h-17.01a1.499 1.499 0 00-1.495 1.498z" fill="none" stroke="#eaeef3"/><path fill="#24b47e" d="M320 15h21v5h-21z"/><path d="M320 20v2.995A2.006 2.006 0 00321.995 25h17.01A1.997 1.997 0 00341 22.995V20z" fill="#e25950" data-name="Rectangle-34"/></g></g><g fill="none" fill-rule="evenodd" clip-rule="evenodd"><path d="M353 10a2 2 0 00-2 2v11a2 2 0 002 2h5.875V10H353z" fill="#24B47E"/><path d="M369.56 10c1.346 0 2.44 1.274 2.44 2.846V17.5h-13.125V10h10.685z" fill="#FCD669"/><path d="M372 22.821c0 1.202-1.093 2.179-2.44 2.179h-10.685v-7.5H372v5.321z" fill="#E25950"/></g><g data-name="Layer 2"><g data-name="Layer 1"><path d="M383.995 10A1.997 1.997 0 00382 12.005V15h21v-2.995A2.006 2.006 0 00401.005 10z" fill="#e25950"/><path fill="#fcd669" d="M382 15h21v5h-21z"/><path data-name="Rectangle-34" d="M382 20v2.995A2.006 2.006 0 00383.995 25h17.01A1.997 1.997 0 00403 22.995V20z" fill="#24b47e"/><path fill="#efc65e" d="M382 15h1.001v5H382zm19.999 0H403v5h-1.001z"/></g></g><g data-name="Layer 2"><g data-name="Layer 1"><path d="M415 10h17a2 2 0 012 2v11a2 2 0 01-2 2h-17a2 2 0 01-2-2V12a2 2 0 012-2z" fill="#24b47e"/><path data-name="Shape" fill="#fcd669" d="M423.999 12l8.999 6.004-8.999 6.004L415 18.004 423.999 12z"/><path d="M420.051 16.993a3.477 3.477 0 00-.051.507 3.483 3.483 0 005.766 2.648 8.588 8.588 0 00-5.716-3.155zm6.523 2.147A3.461 3.461 0 00427 17.5a3.489 3.489 0 00-6.54-1.702 9.848 9.848 0 016.114 3.342z" fill="#43458b"/><path d="M420.46 15.798a3.451 3.451 0 00-.408 1.195 8.588 8.588 0 015.714 3.155 3.49 3.49 0 00.808-1.008 9.848 9.848 0 00-6.114-3.342z" fill="#fff"/></g></g><g data-name="Layer 2"><g data-name="Layer 1"><path fill="#f6f9fc" d="M449 10h11v15h-11V10z"/><path data-name="Shape" d="M460 11h-11v-1h11zm-11 13h11v1h-11z" fill="#e25950" opacity=".1" style="isolation:isolate"/><path data-name="Shape" d="M454.045 20.97l-.003-1.974-1.399-.008.177-.819-1.82-.277.647-1.197-.58-1.585 1.593.634.471-1.818.698.356.668-1.283.76 1.264.621-.286.299 1.757 1.773-.557-.545 1.47.595 1.235-1.76.287.161.811-1.442-.014.008 1.985zM450 25h-4a2 2 0 01-2-2V12a2 2 0 012-2h4zm13 0h-4V10h4a2 2 0 012 2v11a2 2 0 01-2 2z" fill="#e25950"/></g></g><g data-name="Layer 2"><g data-name="Layer 1"><rect width="21" height="15" rx="3" ry="3" fill="#fcd669" x="475" y="10"/><path d="M476.992 10A1.99 1.99 0 00475 12v8l15-10z" fill="#45b2e8"/><circle cx="478" cy="13" r="1" fill="#fcd669"/><path data-name="Rectangle-87" d="M496 23a1.997 1.997 0 01-1.992 2H481l15-10z" fill="#45b2e8"/><path d="M494 10h-1l-18 12v1a2 2 0 002 2h1l18-12v-1a2 2 0 00-2-2z" fill="#e25950"/></g></g><g data-name="Layer 2"><g data-name="Layer 1"><path d="M525 10h-3l-15.393 14.431A1.99 1.99 0 00508 25h3l15.393-14.431A1.99 1.99 0 00525 10z" fill="#fcd669"/><path d="M508 10a2 2 0 00-2 2v11a1.991 1.991 0 00.607 1.431L522 10z" fill="#24b47e"/><path d="M511 25h14a2 2 0 002-2V12a1.991 1.991 0 00-.607-1.431z" fill="#e25950"/></g></g><g data-name="Layer 2"><g data-name="Layer 1"><path d="M12 35h17a2 2 0 012 2v11a2 2 0 01-2 2H12a2 2 0 01-2-2V37a2 2 0 012-2z" fill="#e25950"/><path fill="#fff" d="M25 44h-3v3h-3v-3h-3v-3h3v-3h3v3h3v3z"/></g></g><g fill="none"><path d="M48 35h7v15h-7V35z" fill="#F6F9FC"/><path d="M48 35h7v1h-7v-1z" fill="#EAEEF3"/><path d="M43.8 35H48v15h-4.2c-1.546 0-2.8-1.12-2.8-2.5v-10c0-1.38 1.254-2.5 2.8-2.5z" fill="#F79A59"/><path d="M59.2 50H55V35h4.2c1.546 0 2.8 1.12 2.8 2.5v10c0 1.38-1.254 2.5-2.8 2.5z" fill="#24B47E"/></g><g data-name="Layer 2"><g data-name="Layer 1"><path d="M80.499 43.5v-8h10.492a1.505 1.505 0 011.509 1.498V43.5z" fill="#f7f7f7"/><path d="M90.991 36a1.004 1.004 0 011.009.997V43H81v-7h9.992m0-1H79.999v9H93v-7.003A2.005 2.005 0 0090.991 35z" fill="#e9ebf0"/><path d="M72 43v4.994A2.006 2.006 0 0073.995 50h17.01A1.993 1.993 0 0093 47.994V43z" fill="#e25950"/><path data-name="Rectangle-295" d="M73.997 35A1.993 1.993 0 0072 36.998V43h9v-8z" fill="#43458b"/><path d="M78.34 38.422l-1.169.002a.162.162 0 01-.154-.112l-.362-1.112a.162.162 0 00-.31 0l-.36 1.111a.162.162 0 01-.155.113h-1.17a.162.162 0 00-.095.294l.946.687a.162.162 0 01.058.182L75.21 40.7a.162.162 0 00.25.182l.946-.634a.162.162 0 01.191 0l.946.634a.162.162 0 00.25-.182l-.361-1.111a.162.162 0 01.059-.183l.946-.687a.162.162 0 00.06-.182.165.165 0 00-.156-.114z" fill="#fff"/></g></g><g data-name="Layer 2"><g data-name="Layer 1"><path d="M105.006 35A2 2 0 00103 36.992v11.016A1.992 1.992 0 00105.006 50H110V35z" fill="#24b47e"/><path d="M117 35v15h4.994A2 2 0 00124 48.008V36.992A1.992 1.992 0 00121.994 35z" fill="#fcd669"/><path data-name="Rectangle-295" fill="#e25950" d="M109 35h9v15h-9z"/><path d="M116.625 41.302l-2.014.005a.28.28 0 01-.267-.194l-.624-1.917a.28.28 0 00-.534 0l-.622 1.916a.28.28 0 01-.266.194h-2.015a.28.28 0 00-.165.507l1.63 1.185a.28.28 0 01.102.314l-.622 1.916a.28.28 0 00.432.314l1.63-1.093a.28.28 0 01.33 0l1.63 1.093a.28.28 0 00.432-.314l-.624-1.916a.28.28 0 01.102-.314l1.63-1.185a.28.28 0 00.103-.313.284.284 0 00-.268-.198z" fill="#fcd669"/></g></g><g data-name="Layer 2"><g data-name="Layer 1"><rect width="21" height="15" rx="2" ry="2" fill="#e25950" x="134" y="35"/><path d="M146.5 38a.5.5 0 01.5.5.5.5 0 01-.5.5.5.5 0 01-.5-.5.5.5 0 01.5-.5z" fill="#fcd669"/><path data-name="Rectangle-96" d="M147.5 40a.5.5 0 01.5.5.5.5 0 01-.5.5.5.5 0 01-.5-.5.5.5 0 01.5-.5z" fill="#fcd669"/><path d="M147.5 42a.5.5 0 01.5.5.5.5 0 01-.5.5.5.5 0 01-.5-.5.5.5 0 01.5-.5z" fill="#fcd669"/><path data-name="Rectangle-96" d="M146.5 44a.5.5 0 01.5.5.5.5 0 01-.5.5.5.5 0 01-.5-.5.5.5 0 01.5-.5z" fill="#fcd669"/><path fill="#fcd669" d="M140.471 43.588L138.013 45l.609-2.757-1.651-2.068 2.48-.138 1.02-2.137 1.021 2.137 2.479.138-1.651 2.068.689 2.757-2.538-1.412z"/></g></g><g data-name="Layer 2"><g data-name="Layer 1"><path d="M166.995 35A1.993 1.993 0 00165 37.006V42h21v-4.994A2.006 2.006 0 00184.005 35z" fill="#fcd669"/><path fill="#43458b" d="M165 42h21v4h-21z"/><path data-name="Rectangle-34" d="M165 46v2a2.003 2.003 0 001.995 2h17.01A1.992 1.992 0 00186 48v-2z" fill="#e25950"/></g></g><path d="M217 38h-21v-1a2 2 0 012-2h17a2 2 0 012 2z" fill="#0172c6"/><path fill="#f9f9f9" d="M196.02 38h21v2h-21zm0 7h21v2h-21z"/><path d="M196 47h21v1a2 2 0 01-2 2h-17a2 2 0 01-2-2z" fill="#0172c6"/><path fill="#e25950" d="M196 40h21v5h-21z"/><path d="M200.52 40a2.5 2.5 0 102.48 2.54 2.5 2.5 0 00-2.48-2.54zm0 4a1.5 1.5 0 111.48-1.46 1.5 1.5 0 01-1.48 1.46z" fill="#f9f9f9"/><circle cx="200.52" cy="42.54" r="1.5" fill="#0172c6"/><g data-name="Layer 2"><g data-name="Layer 1"><path d="M229 35h17a2 2 0 012 2v11a2 2 0 01-2 2h-17a2 2 0 01-2-2V37a2 2 0 012-2z" fill="#f6f9fc"/><path data-name="Shape" d="M246 50h-17a2 2 0 01-2-2V37a2 2 0 012-2h17a2 2 0 012 2v11a2 2 0 01-2 2zm1-13a1 1 0 00-1-1h-17a1 1 0 00-1 1v11a1 1 0 001 1h17a1 1 0 001-1z" style="isolation:isolate" fill="#8898aa" opacity=".2"/><path d="M242.28 42.2h-1a3.85 3.85 0 01-7.46 0h-1a4.89 4.89 0 003.42 3.71 1.55 1.55 0 00.25 1.87l1.11-1.11 1.11 1.11a1.55 1.55 0 00.25-1.87 4.89 4.89 0 003.32-3.71z" fill="#24b47e"/><path d="M234.06 40.7a2.38 2.38 0 002.29 2.18l.64.55h.35a2.06 2.06 0 011.78-1.37s.16-1 .79-1h1.67a3.4 3.4 0 011.9-3.37l-1-.47A7.45 7.45 0 01237 39.2a1.26 1.26 0 01-.25.91c-.27.28-.74 0-.74 0s-.28-.52-.56-.56-1.39 1.15-1.39 1.15z" fill="#f79a59"/></g></g><g data-name="Layer 2"><g data-name="Layer 1"><path d="M278 42v-5a1 1 0 00-1-1h-17a.981.981 0 00-.325.066L269 42zm-19.335 7.48a1.991 1.991 0 00.596.375 1.998 1.998 0 01-.595-.375z" fill="#f6f9fc"/><path d="M258.665 49.48a1.991 1.991 0 00.596.375 1.998 1.998 0 01-.595-.375z" fill="#8898aa" opacity=".2" style="isolation:isolate"/><path d="M277 35h-17a1.982 1.982 0 00-1.29.484.788.788 0 01.135.054l.83.528A.981.981 0 01260 36h17a1 1 0 011 1v5h1v-5a2 2 0 00-2-2z" fill="#f6f9fc"/><path d="M277 35h-17a1.982 1.982 0 00-1.29.484.788.788 0 01.135.054l.83.528A.981.981 0 01260 36h17a1 1 0 011 1v5h1v-5a2 2 0 00-2-2z" fill="#8898aa" opacity=".2" style="isolation:isolate"/><path d="M259.995 50H260a1.988 1.988 0 01-.739-.145 1.966 1.966 0 00.734.145zM277 50h.005A1.991 1.991 0 00279 48.002V48a2 2 0 01-2 2z" fill="#e25950"/><path d="M278 42h-9l-9.456 6.877-.735.535a.774.774 0 01-.143.067A1.982 1.982 0 00260 50h17a2 2 0 002-2v-6z" fill="#e25950"/><path d="M258.04 48.403c-.008-.04-.006-.085-.012-.128.006.043.004.087.013.128zm.035.111a1.99 1.99 0 00.59.966 1.994 1.994 0 01-.59-.966zM258 48v.002a1.957 1.957 0 00.028.273A1.969 1.969 0 01258 48zm.075.514c-.01-.037-.026-.072-.034-.11.008.038.024.073.034.11z" fill="#43458b"/><path d="M259.675 36.066l-.83-.528a.788.788 0 00-.136-.054A1.986 1.986 0 00258 37v11a1.969 1.969 0 00.028.275c.006.043.004.087.013.128.008.039.024.074.034.111a1.994 1.994 0 00.591.965.774.774 0 00.143-.067l.735-.535L269 42z" fill="#43458b"/></g></g><g data-name="Layer 2"><g data-name="Layer 1"><path fill="#e25950" d="M289 39h21v7h-21v-7z"/><path data-name="Shape" d="M289 48v-3h21v3a2 2 0 01-2 2h-17a2 2 0 01-2-2z" fill="#fcd669"/><path data-name="Shape" d="M310 37v3h-21v-3a2 2 0 012-2h17a2 2 0 012 2z" fill="#333"/></g></g><g data-name="Layer 2"><g data-name="Layer 1"><path d="M320 42v6.002A2.002 2.002 0 00321.995 50h17.01A1.991 1.991 0 00341 48.002V42z" fill="#24b47e"/><path data-name="Rectangle-295" d="M320 37v6h21v-6a2 2 0 00-2-2h-17a2 2 0 00-2 2z" fill="#45b2e8"/><path d="M322.647 36.623c-.91-.62-1.647-.226-1.647.883v9.988c0 1.108.773 1.549 1.719.99L332 43z" fill="#fff"/><path d="M326.796 41.845l-1.458.004a.202.202 0 01-.193-.14l-.452-1.389a.202.202 0 00-.386 0l-.45 1.387a.202.202 0 01-.193.14h-1.46a.202.202 0 00-.118.367l1.18.858a.202.202 0 01.073.227l-.45 1.387a.202.202 0 00.313.228l1.18-.792a.202.202 0 01.238 0l1.18.792a.202.202 0 00.313-.227l-.453-1.387a.202.202 0 01.074-.227l1.18-.858a.202.202 0 00.075-.227.205.205 0 00-.194-.143z" fill="#e25950"/></g></g><g data-name="Layer 2"><g data-name="Layer 1"><path d="M353 35h17a2 2 0 012 2v11a2 2 0 01-2 2h-17a2 2 0 01-2-2V37a2 2 0 012-2z" fill="#e25950"/><path data-name="Shape" fill="#f6f9fc" d="M372 44h-12v6h-3v-6h-6v-3h6v-6h3v6h12v3z"/><path data-name="Shape" d="M371 45v-5h1v5zm-15 4h5v1h-5zm0-14h5v1h-5zm-5 5h1v5h-1z" fill="#e25950" opacity=".1" style="isolation:isolate"/></g></g><path fill="#e25950" d="M384 35h17a2 2 0 012 2v11a2 2 0 01-2 2h-17a2 2 0 01-2-2V37a2 2 0 012-2z"/><path fill="#f6f9fc" d="M403 44h-9v6h-2.99v-6H382v-3h9v-6h3v6h9v3z"/><path fill="#555abf" d="M402 44v-3h1v3zm-11 5h3v1h-3zm-9-8h1v3h-1zm9-6h3v1h-3z" opacity=".1"/><path fill="#43458b" d="M384 35h7v6h-9v-4.01a1.99 1.99 0 012-1.99zm17.02 15H394v-6h9v4.01a1.98 1.98 0 01-1.98 1.99z"/><circle fill="#24b47e" cx="392.5" cy="42.5" r=".95"/><g data-name="Layer 2"><g data-name="Layer 1"><path d="M419 35v15h13.008A1.993 1.993 0 00434 48.008V36.992A1.993 1.993 0 00432.008 35z" fill="#f6f9fc"/><path data-name="Rectangle-87" d="M415 35a1.997 1.997 0 00-2 1.992v11.016A1.99 1.99 0 00415 50h8V35z" fill="#24b47e"/><path d="M423 38.027v1.021a3.531 3.531 0 00-3 3.452 3.531 3.531 0 003 3.452v1.02a4.5 4.5 0 110-8.945z" fill="#e25950"/><path data-name="Oval-38" d="M426.482 40.403A3.63 3.63 0 00423.6 39a3.551 3.551 0 00-3.6 3.5 3.551 3.551 0 003.6 3.5 3.63 3.63 0 002.882-1.403 4.5 4.5 0 110-4.194z" fill="#e25950"/><circle cx="425.5" cy="42.5" r="1.5" fill="#e25950"/><path d="M432 36a1 1 0 011 1v11a1 1 0 01-1 1h-9v1h9a2 2 0 002-2V37a2 2 0 00-2-2h-9v1z" fill="#8898aa" opacity=".2" style="isolation:isolate"/></g></g><path d="M446 35h17a2 2 0 012 2v5h-21v-5a2 2 0 012-2z" fill="#ffdd03"/><path fill="#555abf" d="M444 42h21v4h-21z"/><path d="M444 46h21v2a2 2 0 01-2 2h-17a2 2 0 01-2-2v-2z" fill="#e25950"/><path d="M454.5 39a3.5 3.5 0 103.5 3.5 3.5 3.5 0 00-3.5-3.5zm0 6a2.5 2.5 0 112.5-2.5 2.5 2.5 0 01-2.5 2.5z" fill="#ffdd03"/><circle cx="454.5" cy="42.5" r="2.5" fill="#6fc242"/><g data-name="Layer 2"><g data-name="Layer 1"><path d="M476.995 35A1.997 1.997 0 00475 37.005V40h21v-2.995A2.006 2.006 0 00494.005 35z" fill="#45b2e8"/><path d="M475 44v4.002A2.002 2.002 0 00476.995 50h17.01A1.999 1.999 0 00496 48.002V44z" fill="#f6f9fc" data-name="Rectangle-34"/><path d="M494 50h-17a2 2 0 01-2-2v-6h1v6a1 1 0 001 1h17a1 1 0 001-1v-6h1v6a2 2 0 01-2 2z" fill="#8898aa" opacity=".2" style="isolation:isolate"/><path d="M475 40h21v5h-21z"/></g></g><g data-name="Layer 2"><g data-name="Layer 1"><path d="M507.995 35A1.997 1.997 0 00506 37.005V40h21v-2.995A2.006 2.006 0 00525.005 35z" fill="#e25950"/><path fill="#fff" d="M506 40h21v5h-21z"/><path data-name="Rectangle-34" d="M506 45v2.995A2.006 2.006 0 00507.995 50h17.01A1.997 1.997 0 00527 47.995V45z"/><path d="M513 41l3 1-3 2zm7 0v3l-3-2zm-4 2h1v1h-1z"/><path data-name="path-141" d="M513 41l3 1-3 2zm7 0v3l-3-2zm-4 2h1v1h-1z" fill="#fcd669"/><path fill="#eaeef3" d="M506 40h1.001v5H506zm19.999 0H527v5h-1.001z"/></g></g><g data-name="Layer 2"><g data-name="Layer 1"><path fill="#fcd669" d="M10 63h21v9H10v-9z"/><path data-name="Shape" d="M10 64v-2a2 2 0 012-2h17a2 2 0 012 2v2zm19 11H12a2 2 0 01-2-2v-2h21v2a2 2 0 01-2 2z" fill="#e25950"/><path data-name="Shape" fill="#f6f9fc" d="M15 65h2v2.5h-2V65z"/><path data-name="Shape" d="M15 70a2 2 0 01-2-2v-.5h2z" fill="#e25950" opacity=".5" style="isolation:isolate"/><path data-name="Shape" d="M15 70v-2.5h2v.5a2 2 0 01-2 2zm-2-5h2v2.5h-2z" fill="#e25950"/></g></g><g data-name="Layer 2"><g data-name="Layer 1"><path d="M43 60h17a2 2 0 012 2v11a2 2 0 01-2 2H43a2 2 0 01-2-2V62a2 2 0 012-2z" fill="#43458b"/><path data-name="Shape" d="M55.906 68.219a.844.844 0 11.844-.844.843.843 0 01-.844.844zm-1.895-3.444a.849.849 0 111.19-.01.849.849 0 01-1.19.01zm1.165 5.2A.85.85 0 1154 70a.85.85 0 011.176-.025zm-3.801 2.775a.844.844 0 11.844-.844.844.844 0 01-.844.844zm0-9.063a.844.844 0 11.843-.844.843.843 0 01-.843.844zm-3.765 7.489a.849.849 0 111.19-.01.849.849 0 01-1.19.01zm-.036-6.401a.85.85 0 011.201-1.201.85.85 0 01-1.201 1.201zm.113 2.6a.844.844 0 11-.844-.843.843.843 0 01.844.843z" fill="#fce883"/></g></g><g data-name="Layer 2"><g data-name="Layer 1"><path d="M74 60h17a2 2 0 012 2v11a2 2 0 01-2 2H74a2 2 0 01-2-2V62a2 2 0 012-2z" fill="#f6f9fc"/><path data-name="Shape" d="M91 75H74a2 2 0 01-2-2V62a2 2 0 012-2h17a2 2 0 012 2v11a2 2 0 01-2 2zm1-13a1 1 0 00-1-1H74a1 1 0 00-1 1v11a1 1 0 001 1h17a1 1 0 001-1z" fill="#8898aa" opacity=".25" style="isolation:isolate"/><path data-name="Shape" fill="#555abf" d="M93 69H81v6h-3v-6h-6v-3h6v-6h3v6h12v3z"/></g></g><rect width="21" height="15" rx="2" fill="#f6f9fc" x="103" y="60"/><path d="M122 61a1 1 0 011 1v11a1 1 0 01-1 1h-17a1 1 0 01-1-1V62a1 1 0 011-1h17m0-1h-17a2 2 0 00-2 2v11a2 2 0 002 2h17a2 2 0 002-2V62a2 2 0 00-2-2z" fill="#eaeef3"/><path fill="#0172c6" d="M124 66h-13.42v-6h-3v6H103v3h4.58v6h3v-6H124v-3z"/><path fill="#e25950" d="M124 67h-14.42v-7h-1v7H103v1h5.58v7h1v-7H124v-1z"/><g data-name="Layer 2"><g data-name="Layer 1"><path fill="#f6f9fc" d="M140 60h9v15h-9V60z"/><path data-name="Shape" d="M140 75v-1h9v1zm0-15h9v1h-9z" fill="#8898aa" opacity=".1" style="isolation:isolate"/><path data-name="Shape" d="M136 60h5v15h-5a2 2 0 01-2-2V62a2 2 0 012-2z" fill="#555abf"/><path data-name="Shape" d="M153 75h-5V60h5a2 2 0 012 2v11a2 2 0 01-2 2z" fill="#e25950"/></g></g><g data-name="Layer 2"><g data-name="Layer 1"><path d="M166.995 60A1.997 1.997 0 00165 62.005V65h21v-2.995A2.006 2.006 0 00184.005 60z" fill="#24b47e"/><path fill="#fcd669" d="M165 65h21v5h-21z"/><path data-name="Rectangle-34" d="M165 70v2.995A2.006 2.006 0 00166.995 75h17.01A1.997 1.997 0 00186 72.995V70z" fill="#217ab7"/><path fill="#e9c863" d="M165 65h1.001v5H165zm20 0h1.001v5H185z"/></g></g><g data-name="Layer 2"><g data-name="Layer 1"><path d="M216.929 73.5H214.5V75h-16v-1.5h-2.429A1.966 1.966 0 01196 73V62a1.966 1.966 0 01.071-.5h2.429V60h16v1.5h2.429a1.966 1.966 0 01.071.5v11a1.966 1.966 0 01-.071.5z" fill="#43458b"/><path data-name="Shape" d="M213.659 60H215a2 2 0 012 2v.454L213.629 65H217v5h-3.288L217 72.483V73a2 2 0 01-2 2h-1.258L209 71.419V75h-5v-3.581L199.258 75H198a2 2 0 01-2-2v-.517L199.288 70H196v-5h3.371L196 62.454V62a2 2 0 012-2h1.341L204 63.519V60h5v3.519z" fill="#f6f9fc"/><path data-name="Shape" d="M208 69v6h-3v-6h-9v-3h9v-6h3v6h9v3zm.5-3.5v-.218l6.929-5.233a1.99 1.99 0 011.138.722l-6.261 4.729zm-12.291-4.374a2.005 2.005 0 01.896-.906l6.99 5.28h-2.094zM204.5 69.5v.218l-6.929 5.233a1.99 1.99 0 01-1.138-.722l6.261-4.729zm12.291 4.374a2 2 0 01-.896.906l-6.99-5.28h2.094z" fill="#e25950"/></g></g><path fill="#ea2c3f" d="M246 75a2 2 0 002-2v-6h-21v6a2 2 0 002 2z"/><path fill="#f6f9fc" d="M227 68v-6a2 2 0 012-2h17a2 2 0 012 2v6z"/><path fill="#8898aa" d="M229 60h17a2 2 0 012 2v6h-1v-6a1 1 0 00-1-1h-17a1 1 0 00-1 1v6h-1v-6a2 2 0 012-2z" opacity=".2"/><path fill="#e25950" d="M248 67v6a2 2 0 01-2 2h-17a2 2 0 01-2-2v-6zm-7.35-2.43h.48v-.66h-.71v-1h.23v-.65h-1.83v.66h.23v1h-.51v-1.71h.23v-.66h-2.54v.66h.23v1.7H236v-1h.23v-.65h-1.88v.66h.23v1h-.71v.66h.48v1.87h6.31m-3.54-2.54v-.55a.38.38 0 01.76 0v.55z"/><path fill="#ffdd03" d="M237.54 68.09a1.25 1.25 0 111.21-1.25 1.25 1.25 0 01-1.21 1.25z"/><path fill="#f6f9fc" d="M237.5 67.34a.5.5 0 01-.5-.5.5.5 0 01.5-.5.5.5 0 010 1z"/><path fill="#ffdd03" d="M237 67.64v2h-1v1h2v-3h-1z"/><path d="M260 60h17a2 2 0 012 2v5.5h-21V62a2 2 0 012-2z" fill="#f6f9fc"/><path d="M277 61a1 1 0 011 1v5.5h1V62a2 2 0 00-2-2h-17a2 2 0 00-2 2v5.5h1V62a1 1 0 011-1h17" fill="#eaeef3"/><path d="M262.5 67.5a4 4 0 018 0zm4 0H258V73a2 2 0 002 2h17a2 2 0 002-2v-5.5h-4.5" fill="#e25950"/><path d="M270.5 67.5a4 4 0 01-8 0z" fill="#fff"/><g data-name="Layer 2"><g data-name="Layer 1"><path fill="#f6f9fc" d="M289 64h21v7h-21z"/><path d="M290.995 60A1.992 1.992 0 00289 62v2h21v-2a2.003 2.003 0 00-1.995-2z" fill="#e25950"/><path fill="#43458b" d="M289 65h21v5h-21z"/><path data-name="Rectangle-34" d="M289 71v2a2.003 2.003 0 001.995 2h17.01A1.992 1.992 0 00310 73v-2z" fill="#24b47e"/></g></g><path d="M339 60h-17a2 2 0 00-2 2v11a2 2 0 002 2h17a2 2 0 002-2V62a2 2 0 00-2-2z" fill="#555abf"/><path fill="#f6f9fc" d="M320 64h10v2h-10z"/><path fill="#f6f9fc" d="M326 60v10h-2V60zm4 2h11v2h-11z"/><path fill="#eaeef3" d="M340 62h1v2h-1z"/><path fill="#f6f9fc" d="M330 66h11v2h-11z"/><path fill="#eaeef3" d="M340 66h1v2h-1z"/><path fill="#f6f9fc" d="M320 70h21v2h-21z"/><path fill="#eaeef3" d="M340 70h1v2h-1z"/><g data-name="Layer 2"><g data-name="Layer 1"><path d="M353.006 60A2 2 0 00351 61.992v11.016A1.992 1.992 0 00353.006 75H358V60zM365 60v15h4.994A2 2 0 00372 73.008V61.992A1.992 1.992 0 00369.994 60z" fill="#45b2e8"/><path fill="#f6f9fc" d="M358 60h7v15h-7z"/><path d="M361.5 69a1.5 1.5 0 111.5-1.5 1.502 1.502 0 01-1.5 1.5zm0-2a.5.5 0 10.5.5.5.5 0 00-.5-.5z" fill="#24b47e"/><path fill="#eaeef3" d="M358 75v-1.001h7v1zm0-14v-1h7v1z"/></g></g><rect x="383" y="61" width="19" height="13" rx="1.77" fill="#0172c6"/><path d="M400.23 61a1.77 1.77 0 011.77 1.77v9.46a1.77 1.77 0 01-1.77 1.77h-15.46a1.77 1.77 0 01-1.77-1.77v-9.46a1.77 1.77 0 011.77-1.77h15.46m0-1h-15.46a2.77 2.77 0 00-2.77 2.77v9.46a2.77 2.77 0 002.77 2.77h15.46a2.77 2.77 0 002.77-2.77v-9.46a2.77 2.77 0 00-2.77-2.77z" fill="#e25950"/><path fill="#fcd669" d="M393 71h-1l-2-2h5l-2 2z"/><path fill="#9cdbff" d="M393 64h-1l-2.17 2.35L390 68h5l.21-1.58L393 64z"/><path fill="#f6f9fc" d="M390.5 69h1l-1-2v2z"/><path d="M393 67a4.38 4.38 0 011 3" fill="none" stroke="#0a9362" stroke-miterlimit="10" stroke-width=".5"/><path d="M392.5 64.19c1 .67 2.5 2 2.5 3.31s-1.52 2.63-2.5 3.31c-1-.67-2.5-2-2.5-3.31s1.52-2.63 2.5-3.31m0-1.19s-3.5 2-3.5 4.5 3.5 4.5 3.5 4.5 3.5-2 3.5-4.5-3.5-4.5-3.5-4.5z" fill="#e25950"/><circle cx="393" cy="67" r="1" fill="#0a9362"/><g data-name="Layer 2"><g data-name="Layer 1"><path d="M415 60h17a2 2 0 012 2v11a2 2 0 01-2 2h-17a2 2 0 01-2-2V62a2 2 0 012-2z" fill="#e25950"/><path d="M423.31 67.4a2.311 2.311 0 011.77-1.903c1.389-.542 2.732.89 2.91 1.681-.054.046-.147-.023-.27-.093a.492.492 0 00-.56-.032c-.384.259-.466.476-.916.632a1.226 1.226 0 01-1.247-.329 1.22 1.22 0 00-1.686.044m-.271.441a2.31 2.31 0 01-2.55.5c-1.441-.379-1.686-2.326-1.365-3.071.159-.013.136.573.598.589a2.813 2.813 0 00.41-.018 1.552 1.552 0 01.702.046 1.224 1.224 0 01.816.998 1.22 1.22 0 001.389.956m.36.091a2.311 2.311 0 01-.357 2.574c-.827 1.239-2.748.837-3.347.291.039-.156.585.057.75-.374s.11-.657.39-1.043a1.225 1.225 0 011.209-.446 1.22 1.22 0 001.355-1.002m.114-.311a2.311 2.311 0 012.357 1.094c.943 1.153-.003 2.873-.7 3.287-.138-.083.226-.543-.14-.828s-.595-.296-.882-.677a1.224 1.224 0 01-.073-1.287 1.22 1.22 0 00-.562-1.589m-.541-.119a2.308 2.308 0 01-1.223-2.292c-.06-1.489 1.731-2.293 2.537-2.203.06.149-.508.297-.388.744s.298.596.298 1.072a1.225 1.225 0 01-.716 1.072 1.218 1.218 0 00-.507 1.607" fill="#fff"/></g></g><g data-name="Layer 2"><g data-name="Layer 1"><path d="M445.995 60A1.997 1.997 0 00444 62.005V65h21v-2.995A2.006 2.006 0 00463.005 60z" fill="#45b2e8"/><path fill="#f6f9fc" d="M444 65h21v5h-21z"/><path data-name="Rectangle-34" d="M444 70v2.995A2.006 2.006 0 00445.995 75h17.01A1.997 1.997 0 00465 72.995V70z" fill="#45b2e8"/><path fill="#eaeef3" d="M444 65h1.001v5H444zm19.999 0H465v5h-1.001z"/><path d="M454 67.5a.5.5 0 11.5.5.5.5 0 01-.5-.5zm-3-1a.5.5 0 11.5.5.5.5 0 01-.5-.5zm0 2a.5.5 0 11.5.5.5.5 0 01-.5-.5zm6 0a.5.5 0 11.5.5.5.5 0 01-.5-.5zm0-2a.5.5 0 11.5.5.5.5 0 01-.5-.5z" fill="#45b2e8"/></g></g><g fill="none"><path d="M476.995 60A1.997 1.997 0 00475 62.005V65h21v-2.995A2.006 2.006 0 00494.005 60h-17.01z" fill="#E25950"/><path d="M496 65h-21v5h21v-5z" fill="#F6F9FC"/><path d="M475 70v2.995A2.006 2.006 0 00476.995 75h17.01A1.996 1.996 0 00496 72.995V70h-21z" fill="#43458B"/><path d="M483.202 64h5v4.5a2.5 2.5 0 01-2.5 2.5 2.5 2.5 0 01-2.5-2.5V64z" fill="#F6F9FC"/><path opacity=".1" d="M495 70.024V65.01h1v5.013h-1zm-20-5.014h1v5.013h-1V65.01z" fill="#555ABF"/><path d="M484.924 64.985h-1.072v1.072h1.072v-1.072z" fill="#F6F9FC"/><path d="M485.994 64.985h-1.072v1.072h1.072v-1.072z" fill="#E25950"/><path d="M487.063 64.985h-1.072v1.072h1.072v-1.072z" fill="#F6F9FC"/><path d="M488.161 64.985h-1.1v1.072h1.1v-1.072zm-3.237 1.065h-1.072v1.07h1.072v-1.07z" fill="#E25950"/><path d="M485.994 66.05h-1.072v1.07h1.072v-1.07z" fill="#F6F9FC"/><path d="M487.063 66.05h-1.071v1.07h1.071v-1.07z" fill="#E25950"/><path d="M488.133 66.05h-1.072v1.07h1.072v-1.07zm-3.209 1.064h-1.072v1.071h1.072v-1.071z" fill="#F6F9FC"/><path d="M485.994 67.113h-1.072v1.072h1.072v-1.072z" fill="#E25950"/><path d="M487.063 67.114h-1.072v1.071h1.072v-1.071z" fill="#F6F9FC"/><path d="M488.161 67.113h-1.1v1.072h1.1v-1.072zm-3.237 1.064h-1.072v1.073h1.072v-1.073z" fill="#E25950"/><path d="M485.994 68.178h-1.072v1.071h1.072v-1.071z" fill="#F6F9FC"/><path d="M487.063 68.177h-1.071v1.073h1.071v-1.073z" fill="#E25950"/><path d="M488.133 68.178h-1.072v1.071h1.072v-1.071zm-3.209 1.058h-1.072v1.072h1.072v-1.072z" fill="#F6F9FC"/><path d="M485.994 69.236h-1.072v1.48h1.072v-1.48z" fill="#E25950"/><path d="M487.063 69.236h-1.072v1.072h1.072v-1.072z" fill="#F6F9FC"/><path d="M488.133 69.236h-1.072v1.072h1.072v-1.072z" fill="#E25950"/><path d="M488.134 64.585v3.848a2.138 2.138 0 01-4.275 0v-3.848h4.275zm.855-.855h-5.985v4.703a2.993 2.993 0 002.993 2.992 2.992 2.992 0 002.992-2.992V63.73z" fill="#E25950"/><path d="M483 63.956l.602-.556.598.556v1.049H483v-1.049z" fill="#43458B"/><path d="M484.193 63.956l.602-.556.598.556v1.049h-1.2v-1.049z" fill="#0172C6"/><path d="M485.384 63.956l.603-.556.598.556v1.049h-1.201v-1.049z" fill="#43458B"/><path d="M486.577 63.956l.603-.556.598.556v1.049h-1.201v-1.049z" fill="#0172C6"/><path d="M487.769 63.956l.602-.556.598.556v1.049h-1.2v-1.049z" fill="#43458B"/></g><g data-name="Layer 2"><g data-name="Layer 1"><path d="M507.995 60A1.991 1.991 0 00506 61.998V68h21v-6.002A2.002 2.002 0 00525.005 60z" fill="#43458b"/><path data-name="Rectangle-295" d="M506 68v4.994A2.006 2.006 0 00507.995 75h17.01A1.993 1.993 0 00527 72.994V68z" fill="#e25950"/><path fill="#fff" d="M512 65h9v5h-9z"/><path data-name="Rectangle-927" d="M520.902 70h-8.804c.454-1.141 2.408-2 4.401-2s3.947.859 4.402 2zm-5.402-4h2v1l-.983 1-1.017-1z" fill="#24b47e"/><path d="M514 67h1v1h-1zm4 0h1v1h-1z" fill="#fcd669"/><path data-name="Rectangle-930" d="M513 66h1v1h-1zm6 0h1v1h-1z" fill="#fcd669"/></g></g><g data-name="Layer 2"><g data-name="Layer 1"><path d="M11.995 85A1.997 1.997 0 0010 87.005V90h21v-2.995A2.006 2.006 0 0029.005 85z" fill="#e25950"/><path fill="#f6f9fc" d="M10 90h21v5H10z"/><path data-name="Rectangle-34" d="M10 95v2.995A2.006 2.006 0 0011.995 100h17.01A1.997 1.997 0 0031 97.995V95z" fill="#24b47e"/><path fill="#eaeef3" d="M10 90h1.001v5H10zm19.999 0H31v5h-1.001z"/></g></g><g data-name="Layer 2"><g data-name="Layer 1"><path d="M41 92v6.002A2.002 2.002 0 0042.995 100h17.01A1.991 1.991 0 0062 98.002V92z" fill="#f6f9fc"/><path d="M41.5 92.5v5.502a1.502 1.502 0 001.495 1.498h17.01a1.491 1.491 0 001.495-1.498V92.5z" fill="none" stroke="#eaeef3"/><path d="M42.995 85A1.991 1.991 0 0041 86.998V93h21v-6.002A2.002 2.002 0 0060.005 85z" fill="#e25950"/></g></g><g data-name="Layer 2"><g data-name="Layer 1"><path fill="#f6f9fc" d="M78 85h9v15h-9V85z"/><path data-name="Shape" d="M78 100v-1h9v1zm0-15h9v1h-9z" fill="#8898aa" opacity=".1" style="isolation:isolate"/><path data-name="Shape" d="M74 85h5v15h-5a2 2 0 01-2-2V87a2 2 0 012-2z" fill="#24b47e"/><path data-name="Shape" d="M91 100h-5V85h5a2 2 0 012 2v11a2 2 0 01-2 2z" fill="#f79a59"/></g></g><g data-name="Layer 2"><g data-name="Layer 1"><path d="M104.493 85A1.493 1.493 0 00103 86.5V88h21v-1.5a1.5 1.5 0 00-1.493-1.5z" fill="#43458b"/><path fill="#f6f9fc" d="M104.001 88h18.998v9h-18.998z"/><path d="M115.125 92.5L114 91h-1l-1.125 1.5L113 94h1zm.75 0L117 94h-2l-1.5 2.5L112 94h-2l1.125-1.5L110 91h2l1.5-2.5L115 91h2z" fill="#43458b"/><path data-name="Rectangle-34" d="M103 97v1.5a1.5 1.5 0 001.493 1.5h18.014A1.493 1.493 0 00124 98.5V97z" fill="#43458b"/><path fill="#eaeef3" d="M103 88h1.001v9H103zm19.999 0H124v9h-1.001z"/></g></g><rect width="21" height="15" rx="2" fill="#e25950" x="134" y="85"/><path fill="#f6f9fc" fill-rule="evenodd" d="M143.57 97.98l1.19-1.62-1.97-2.48 2.85-1.57 2.7.63.5-.87.64-3.09.83-.1.25-.44-1.95.04-.63 3.09-2.5-.87-.97-3.01h-1l-3 1-.5-.67h-.5l1 1.68 3-1.01.5 2.51-2.5 2.08.38 1.02 1.66 1.99.27.41-.46.7.21.58z"/><g data-name="Layer 2"><g data-name="Layer 1"><path d="M166.995 85A1.997 1.997 0 00165 87.005V90h21v-2.995A2.006 2.006 0 00184.005 85z" fill="#f79a59"/><path fill="#fff" d="M165 90h21v5h-21z"/><path d="M165 95v2.995a2.006 2.006 0 001.995 2.005h17.01A1.997 1.997 0 00186 97.995V95z" fill="#24b47e" data-name="Rectangle-34"/><path d="M175.5 94a1.5 1.5 0 111.5-1.5 1.502 1.502 0 01-1.5 1.5zm0-2a.5.5 0 10.5.5.5.5 0 00-.5-.5z" fill="#6772e5"/><path fill="#eaeef3" d="M165 90h1.001v5H165zm19.999 0H186v5h-1.001z"/></g></g><g data-name="Layer 2"><g data-name="Layer 1"><path d="M197.995 85A1.997 1.997 0 00196 87.005V90h21v-2.995A2.006 2.006 0 00215.005 85z" fill="#e25950"/><path fill="#fff" d="M196 90h21v5h-21z"/><path data-name="Rectangle-34" d="M196 95v2.995a2.006 2.006 0 001.995 2.005h17.01A1.997 1.997 0 00217 97.995V95z"/><path d="M204 91h1v3h-1zm2 0h1v3h-1zm2 0h1v3h-1z" fill="#24b47e"/><path fill="#eaeef3" d="M196 90h1.001v5H196zm19.999 0H217v5h-1.001z"/></g></g><g data-name="Layer 2"><g data-name="Layer 1"><path d="M228.995 85A1.997 1.997 0 00227 87.005V90h21v-2.995A2.006 2.006 0 00246.005 85z" fill="#24b47e"/><path fill="#fff" d="M227 90h21v5h-21z"/><path data-name="Rectangle-34" d="M227 95v2.995a2.006 2.006 0 001.995 2.005h17.01A1.997 1.997 0 00248 97.995V95z" fill="#e25950"/><circle cx="237.5" cy="92.5" r="1" fill="none" stroke="#e25950"/><path d="M228 88.5a.5.5 0 11.5.5.5.5 0 01-.5-.5zm2 0a.5.5 0 11.5.5.5.5 0 01-.5-.5zm2 0a.5.5 0 11.5.5.5.5 0 01-.5-.5zm2 0a.5.5 0 11.5.5.5.5 0 01-.5-.5zm2 0a.5.5 0 11.5.5.5.5 0 01-.5-.5zm2 0a.5.5 0 11.5.5.5.5 0 01-.5-.5zm2 0a.5.5 0 11.5.5.5.5 0 01-.5-.5zm2 0a.5.5 0 11.5.5.5.5 0 01-.5-.5zm2 0a.5.5 0 11.5.5.5.5 0 01-.5-.5zm2 0a.5.5 0 11.5.5.5.5 0 01-.5-.5z" fill="#fff" opacity=".7" style="isolation:isolate"/><path data-name="Rectangle-962" d="M228 96.5a.5.5 0 11.5.5.5.5 0 01-.5-.5zm2 0a.5.5 0 11.5.5.5.5 0 01-.5-.5zm2 0a.5.5 0 11.5.5.5.5 0 01-.5-.5zm2 0a.5.5 0 11.5.5.5.5 0 01-.5-.5zm2 0a.5.5 0 11.5.5.5.5 0 01-.5-.5zm2 0a.5.5 0 11.5.5.5.5 0 01-.5-.5zm2 0a.5.5 0 11.5.5.5.5 0 01-.5-.5zm2 0a.5.5 0 11.5.5.5.5 0 01-.5-.5zm2 0a.5.5 0 11.5.5.5.5 0 01-.5-.5zm2 0a.5.5 0 11.5.5.5.5 0 01-.5-.5z" fill="#fff" opacity=".5" style="isolation:isolate"/><path fill="#eaeef3" d="M227 90h1.001v5H227zm19.999 0H248v5h-1.001z"/></g></g><rect width="21" height="15" rx="2" fill="#0172c6" x="258" y="85"/><path fill="#f6f9fc" d="M279 91h-13.42v-6h-3v6H258v3h4.58v6h3v-6H279v-3z"/><path fill="#e25950" d="M279 92h-14.42v-7h-1v7H258v1h5.58v7h1v-7H279v-1z"/><g data-name="Layer 2"><g data-name="Layer 1"><path fill="#f6f9fc" d="M295 85h9v15h-9V85z"/><path data-name="Shape" d="M295 100v-1h9v1zm0-15h9v1h-9z" fill="#8898aa" opacity=".1" style="isolation:isolate"/><path data-name="Shape" d="M291 85h5v15h-5a2 2 0 01-2-2V87a2 2 0 012-2z" fill="#24b47e"/><path data-name="Shape" d="M308 100h-5V85h5a2 2 0 012 2v11a2 2 0 01-2 2z" fill="#e25950"/></g></g><rect width="21" height="15" rx="2" fill="#f6f9fc" x="320" y="85"/><path d="M332 87.5c0 .83-1.5 2.5-1.5 2.5s-1.5-1.67-1.5-2.5a1.5 1.5 0 013 0z" fill="#e25950"/><path d="M339 86a1 1 0 011 1v11a1 1 0 01-1 1h-17a1 1 0 01-1-1V87a1 1 0 011-1h17m0-1h-17a2 2 0 00-2 2v11a2 2 0 002 2h17a2 2 0 002-2V87a2 2 0 00-2-2z" fill="#eaeef3"/><path d="M332.17 92.11l8.52-6.17A2 2 0 00339 85h-.42l-8.14 5.89L322 85a2 2 0 00-1.81 1.16l8.53 6-8.72 6.25a2 2 0 001.4 1.49l9-6.55 9.3 6.5a2 2 0 001.3-1.59z" fill="#e25950"/><g data-name="Layer 2"><g data-name="Layer 1"><path d="M371.223 85.428a1.058 1.058 0 01-.091.068L361.5 91l-9.632-5.504a1.023 1.023 0 01-.091-.068A1.989 1.989 0 00351 87v1l8 4.5-8 4.5v1a1.989 1.989 0 00.777 1.572 1.023 1.023 0 01.091-.068L361.5 94l9.632 5.504a1.058 1.058 0 01.091.068A1.989 1.989 0 00372 98v-1l-8-4.5 8-4.5v-1a1.989 1.989 0 00-.777-1.572z" fill="#fcd669"/><path d="M361.5 91l9.632-5.504a1.058 1.058 0 00.091-.068A1.98 1.98 0 00370 85h-17a1.98 1.98 0 00-1.223.428 1.023 1.023 0 00.091.068zm0 3l-9.632 5.504a1.023 1.023 0 00-.091.068A1.98 1.98 0 00353 100h17a1.98 1.98 0 001.223-.428 1.058 1.058 0 00-.091-.068z" fill="#24b47e"/><path d="M351 88v9l8-4.5-8-4.5zm21 9v-9l-8 4.5 8 4.5z"/></g></g><g data-name="Layer 2"><g data-name="Layer 1"><path fill="#f6f9fc" d="M382 90h21v5h-21z"/><path d="M403 87.005A2.006 2.006 0 00401.005 85h-17.01a1.975 1.975 0 00-1.325.513.78.78 0 01.135.063L389 90h14z"/><path d="M382.675 99.485a1.975 1.975 0 001.32.515h17.01A1.997 1.997 0 00403 97.995V95h-14l-6.194 4.424a.772.772 0 01-.131.06z" fill="#24b47e"/><path d="M389 90l-6.194-4.424a.78.78 0 00-.135-.063 1.995 1.995 0 00-.671 1.493v10.99a1.996 1.996 0 00.675 1.49.772.772 0 00.131-.06L389 95l3.5-2.5z" fill="#e25950"/><circle cx="385.5" cy="92.5" r="1.5" fill="#f6f9fc"/><path fill="#eaeef3" d="M402 89.999h1v5h-1z"/></g></g><g data-name="Layer 2"><g data-name="Layer 1"><path d="M415 85h17a2 2 0 012 2v11a2 2 0 01-2 2h-17a2 2 0 01-2-2V87a2 2 0 012-2z" fill="#f6f9fc"/><path data-name="Shape" d="M432 100h-17a2 2 0 01-2-2V87a2 2 0 012-2h17a2 2 0 012 2v11a2 2 0 01-2 2zm1-13a1 1 0 00-1-1h-17a1 1 0 00-1 1v11a1 1 0 001 1h17a1 1 0 001-1z" fill="#8898aa" opacity=".2" style="isolation:isolate"/><path data-name="Shape" d="M423.5 89a3.5 3.5 0 11-3.5 3.5 3.5 3.5 0 013.5-3.5z" fill="#e25950"/></g></g><g fill="none"><path fill-rule="evenodd" clip-rule="evenodd" d="M444 89v7h21v-7h-21z" fill="#F6F9FC"/><path fill-rule="evenodd" clip-rule="evenodd" d="M445.313 89H444v7h1.313v-7zm18.375 0v7H465v-7h-1.313z" fill="#EAEEF3"/><path fill-rule="evenodd" clip-rule="evenodd" d="M446 85a2 2 0 00-2 2v2h21v-2a2 2 0 00-2-2h-17z" fill="#333"/><path fill-rule="evenodd" clip-rule="evenodd" d="M444 90v5h21v-5h-21z" fill="#E25950"/><path fill-rule="evenodd" clip-rule="evenodd" d="M444 96v2a2 2 0 002 2h17a2 2 0 002-2v-2h-21z" fill="#159570"/><path d="M455 87.172A7.657 7.657 0 01455 98a7.657 7.657 0 010-10.828z" fill="#333"/><path d="M456.963 90.529A7.623 7.623 0 00455 87.172a7.622 7.622 0 00-1.963 3.357c.586.457.963 1.17.963 1.971 0 .818-.393 1.545-1 2a7.62 7.62 0 002 3.5 7.622 7.622 0 002-3.5 2.496 2.496 0 01-1-2c0-.8.377-1.514.963-1.971z" fill="#E25950"/><circle cx="455" cy="92.5" r=".5" fill="#F6F9FC"/><path d="M455 87.172A2.707 2.707 0 01455 91a2.707 2.707 0 010-3.828zM455 94a2.828 2.828 0 010 4 2.828 2.828 0 010-4z" fill="#F6F9FC"/></g><g data-name="Layer 2"><g data-name="Layer 1"><rect width="21" height="15" rx="2" ry="2" fill="#e25950" x="475" y="85"/><path d="M488.5 96a.5.5 0 11.5-.5.5.5 0 01-.5.5zm-6-6a.5.5 0 11.5-.5.5.5 0 01-.5.5zm6 0a.5.5 0 11.5-.5.5.5 0 01-.5.5zm-6 6a.5.5 0 11.5-.5.5.5 0 01-.5.5zm3-7a.5.5 0 11.5-.5.5.5 0 01-.5.5zm-4 4a.5.5 0 11.5-.5.5.5 0 01-.5.5zm4 4a.5.5 0 11.5-.5.5.5 0 01-.5.5zm4-4a.5.5 0 11.5-.5.5.5 0 01-.5.5zm-4 2a2.5 2.5 0 112.5-2.5 2.5 2.5 0 01-2.5 2.5z" fill="#fedc32"/></g></g><g data-name="Layer 2"><g data-name="Layer 1"><rect width="21" height="15" rx="3" ry="3" fill="#fcd669" x="506" y="85"/><rect x="506.5" y="85.5" width="20" height="14" rx="3" ry="3" fill="none" stroke="#000" stroke-opacity=".08"/><path d="M527 88l-18 12h-2.001a.998.998 0 01-.999-1.008V97l18-12h2.001a.998.998 0 01.999 1.008z"/><path data-name="Rectangle-87" d="M507.992 85A1.99 1.99 0 00506 87v8l15-10z" fill="#24b47e"/><path data-name="Rectangle-87" d="M527 98a1.997 1.997 0 01-1.992 2H512l15-10z" fill="#e25950"/><circle cx="513.5" cy="94.5" r="1.5" fill="#fff"/><circle cx="519.5" cy="90.5" r="1.5" fill="#fff"/></g></g><g data-name="Layer 2"><g data-name="Layer 1"><path fill="#f6f9fc" d="M10 113h21v9H10z"/><path d="M11.493 110A1.493 1.493 0 0010 111.5v1.5h21v-1.5a1.5 1.5 0 00-1.493-1.5z" fill="#43458b"/><path fill="#e25950" d="M10 114h21v7H10z"/><path data-name="Rectangle-34" d="M10 122v1.5a1.5 1.5 0 001.493 1.5h18.014A1.493 1.493 0 0031 123.5V122z" fill="#43458b"/><path d="M15.5 119a1.5 1.5 0 10-1.5-1.5 1.5 1.5 0 001.5 1.5z" fill="#fff"/></g></g><g data-name="Layer 2"><g data-name="Layer 1"><path d="M43 110h17a2 2 0 012 2v11a2 2 0 01-2 2H43a2 2 0 01-2-2v-11a2 2 0 012-2z" fill="#f6f9fc"/><path d="M42.995 110h17.01A2 2 0 0162 111.992v11.016A1.994 1.994 0 0160.005 125h-17.01A2 2 0 0141 123.008v-11.016A1.994 1.994 0 0142.995 110zm0 1a.997.997 0 00-.995.998v11.004a1 1 0 00.995.998h17.01a.997.997 0 00.995-.998v-11.004a1 1 0 00-.995-.998z" fill="#dfe5eb"/><path d="M48 117.5a3.5 3.5 0 116.663 1.5h-6.326a3.486 3.486 0 01-.337-1.5z" fill="#e25950"/><path d="M55 113.207V113h1.207l1.293 1.793V115h-1.207zm-9.5 1.586L46.793 113H48v.207L46.707 115H45.5zm9.5 7L56.293 120H57.5v.207L56.207 122H55zm-9.5-1.586V120h1.207L48 121.793V122h-1.207z" fill-opacity=".9"/><path d="M53.175 116.736a1.733 1.733 0 011.773 1.37 3.501 3.501 0 01-3.378 2.893 3.668 3.668 0 01-3.163-1.86A3.485 3.485 0 0148 117.53a3.28 3.28 0 01.392-1.53c.002.047.004.098.004.154 0 .674-.003 2.084 1.692 2.084s1.646-1.502 3.087-1.502z" fill="#43458b"/></g></g><g data-name="Layer 2"><g data-name="Layer 1"><path d="M74 110v5h19v-2.995A1.999 1.999 0 0091.003 110z" fill="#24b47e"/><path fill="#f6f9fc" d="M73 115h20v5H73z"/><path data-name="Rectangle-34" d="M74 120v5h17.003A1.999 1.999 0 0093 122.995V120z" fill="#e25950"/><path d="M80 115v5l-5.995 5A1.996 1.996 0 0172 123.008v-11.016A2 2 0 0174.005 110z" data-name="Rectangle-295"/><path fill="#eaeef3" d="M91.999 115H93v5h-1.001z"/></g></g><g data-name="Layer 2"><g data-name="Layer 1"><rect width="21" height="15" rx="2" ry="2" fill="#1cafc8" x="103" y="110"/><circle cx="113.5" cy="117.5" r="3.5" fill="#fcd669"/><path fill="#047a9d" fill-opacity=".199" opacity=".78" style="isolation:isolate" d="M104 113h4v9h-4z"/><path d="M105 114h2v1h-2zm0 2h2v1h-2zm0 2h2v1h-2zm0 2h2v1h-2z" fill="#fcd669"/></g></g><g data-name="Layer 2"><g data-name="Layer 1"><path d="M135.995 110a1.992 1.992 0 00-1.995 2v2h21v-2a2.003 2.003 0 00-1.995-2z" fill="#e25950"/><path fill="#43458b" d="M134 114h21v7h-21z"/><path data-name="Rectangle-34" d="M134 121v2a2.003 2.003 0 001.995 2h17.01a1.992 1.992 0 001.995-2v-2z" fill="#e25950"/><circle cx="144.5" cy="117.5" r="1.5" fill="#fff"/></g></g><g data-name="Layer 2"><g data-name="Layer 1"><path d="M166.995 110a1.992 1.992 0 00-1.995 2v2h21v-2a2.003 2.003 0 00-1.995-2z" fill="#e25950"/><path fill="#f6f9fc" d="M165 114h21v7h-21z"/><path data-name="Rectangle-34" d="M165 121v2a2.003 2.003 0 001.995 2h17.01a1.992 1.992 0 001.995-2v-2z" fill="#e25950"/><path d="M176 119v1h-1v-1h-2l2.5-4 2.5 4z" fill="#24b47e"/><path fill="#eaeef3" d="M165 114h1.001v7H165zm19.999 0H186v7h-1.001z"/></g></g><g data-name="Layer 2"><g data-name="Layer 1"><rect width="21" height="15" rx="2" ry="2" fill="#45b2e8" x="196" y="110"/><path fill="#fff" d="M206.5 112l-5.5 11h11l-5.5-11z"/><path d="M206.5 115l-4 8h8l-4-8z"/><path data-name="Rectangle-1065" fill="#fcd669" d="M206.5 118.8L201 123h11l-5.5-4.2z"/></g></g><path d="M229 110a2 2 0 00-2 2v6h21v-6a2 2 0 00-2-2z" fill="#555abf"/><path d="M227 118v5a2 2 0 002 2h17a2 2 0 002-2v-5z" fill="#e25950"/><path d="M233.44 115.74h-.07v-.38a1.26 1.26 0 00.54-1 1.29 1.29 0 00-1.77-1.23.39.39 0 00-.14-.41l-.07-.24.28.08V112l-.28.08.07-.26h-.52l.08.28-.28-.1v.54l.28-.08-.07.24a.43.43 0 00-.13.41 1.29 1.29 0 00-1.77 1.21 1.26 1.26 0 00.54 1v.38h-.07a.2.2 0 000 .4h3.38a.2.2 0 000-.4z" fill="#fcd669"/><g data-name="Layer 2"><g data-name="Layer 1"><path d="M259.995 110a1.997 1.997 0 00-1.995 2.005V115h21v-2.995a2.006 2.006 0 00-1.995-2.005z" fill="#555abf"/><path fill="#f6f9fc" d="M258 115h21v5h-21z"/><path data-name="Rectangle-34" d="M258 120v2.995a2.006 2.006 0 001.995 2.005h17.01a1.997 1.997 0 001.995-2.005V120z" fill="#24b47e"/><path d="M268.5 116l-1.856 2.227c-.356.427-.2.773.356.773h3c.552 0 .713-.344.356-.773z"/><path fill="#eaeef3" d="M258 115h1.001v5H258zm19.999 0H279v5h-1.001z"/></g></g><path d="M291 110a2 2 0 00-2 2v3h21v-3a2 2 0 00-2-2z" fill="#fcd669"/><path fill="#24b47e" d="M289 115h21v5h-21z"/><path d="M289 120v3a2 2 0 002 2h17a2 2 0 002-2v-3z" fill="#e25950"/><g data-name="Layer 2"><g data-name="Layer 1"><path fill="#f6f9fc" d="M320 114h21v7h-21v-7z"/><path data-name="Shape" d="M340 121v-7h1v7zm-20-7h1v7h-1z" fill="#8898aa" opacity=".1" style="isolation:isolate"/><path data-name="Shape" d="M320 123v-3h21v3a2 2 0 01-2 2h-17a2 2 0 01-2-2z" fill="#45b2e8"/><path data-name="Shape" d="M341 112v3h-21v-3a2 2 0 012-2h17a2 2 0 012 2z" fill="#e25950"/></g></g><path d="M352.995 110a1.992 1.992 0 00-1.995 2v4h21v-4a2 2 0 00-1.995-2z" fill="#b1372f"/><path fill="#f8fafc" d="M351 116h21v3h-21z"/><path d="M351 119v4a2 2 0 001.995 2h17.01a1.992 1.992 0 001.995-2v-4z" fill="#b1372f"/><path fill="#eaeef3" d="M351 116h1.001v3H351zm19.999 0H372v3h-1.001z"/><rect width="21" height="15" rx="2" fill="#e25950" x="382" y="110"/><path fill="none" stroke="#24b47e" stroke-linecap="round" stroke-linejoin="round" d="M392.5 112.5l3 9-8-6h10l-8 6 3-9z"/><g fill="none"><path fill-rule="evenodd" clip-rule="evenodd" d="M413 118v5a2 2 0 002 2h17a2 2 0 002-2v-5h-21z" fill="#F6F9FC"/><path fill-rule="evenodd" clip-rule="evenodd" d="M415 110a2 2 0 00-2 2v6h21v-6a2 2 0 00-2-2h-17z" fill="#E25950"/><path d="M432 125h-17a2 2 0 01-2-2v-5h1v5a1 1 0 001 1h17a1 1 0 001-1v-5h1v5a2 2 0 01-2 2z" fill="#EAEEF3"/></g><g data-name="Layer 2"><g data-name="Layer 1"><path d="M446.006 110a2 2 0 00-2.006 1.992v11.016a1.992 1.992 0 002.006 1.992H451v-15z" fill="#f6f9fc"/><path d="M446 111a1 1 0 00-1 1v11a1 1 0 001 1h9v1h-9a2 2 0 01-2-2v-11a2 2 0 012-2h9v1z" fill="#8898aa" opacity=".2" style="isolation:isolate"/><path data-name="Rectangle-87" d="M463.14 110a2.1 2.1 0 011.86 2.276V118h-14v-8z" fill="#e25950"/><path data-name="Rectangle-87" d="M465 123.257a1.805 1.805 0 01-1.86 1.743H451v-7h14z" fill="#24b47e"/></g></g><g data-name="Layer 2"><g data-name="Layer 1"><rect width="21" height="15" rx="2" ry="2" fill="#fcd669" x="475" y="110"/><path d="M495 116.143l1-.143v-3.757l-1 .382-6.497 2.477-.47-.883L492.61 111l1.418-.997c-.011 0-.019-.003-.028-.003h-7l-.25 1-.75 3h-1l-.75-3-.25-1h-6.962l1.422 1 4.576 3.22-.47.882-6.566-2.504-.967-.368-.03-.259c0 .01-.003.019-.003.029v4l1 .143 6 .857v1l-6 .857-1 .143v4c0 .03.008.059.009.09l.024-.236.967-.37 6.566-2.503.47.883-4.457 3.136-1.422 1H484l.25-1 .75-3h1l.75 3 .25 1h6.913l-1.421-1-4.459-3.136.47-.883 6.497 2.477 1 .382V119l-1-.143-6-.857v-1zM485.5 120a2.5 2.5 0 112.5-2.5 2.5 2.5 0 01-2.5 2.5z" fill="#e25950"/></g></g><g data-name="Layer 2"><g data-name="Layer 1"><path d="M508.006 110a2 2 0 00-2.006 1.992v11.016a1.992 1.992 0 002.006 1.992H513v-15z" fill="#24b47e"/><path d="M520 110v15h4.994a2 2 0 002.006-1.992v-11.016a1.992 1.992 0 00-2.006-1.992z" fill="#e25950"/><path data-name="Rectangle-295" fill="#fcd669" d="M513 110h7v15h-7z"/></g></g><g data-name="Layer 2"><g data-name="Layer 1"><path d="M11.995 135A1.997 1.997 0 0010 137.005V140h21v-2.995A2.006 2.006 0 0029.005 135z" fill="#fcd669"/><path fill="#24b47e" d="M10 140h21v5H10z"/><path data-name="Rectangle-34" d="M10 145v2.995A2.006 2.006 0 0011.995 150h17.01A1.997 1.997 0 0031 147.995V145z" fill="#e25950"/><path d="M24.633 141l-2.625.006a.364.364 0 01-.347-.253l-.813-2.497a.364.364 0 00-.695 0l-.811 2.496a.364.364 0 01-.347.253h-2.626a.364.364 0 00-.215.661l2.124 1.544a.364.364 0 01.132.409l-.81 2.497a.364.364 0 00.562.41l2.124-1.426a.364.364 0 01.43 0l2.125 1.425a.364.364 0 00.563-.409l-.813-2.497a.364.364 0 01.132-.41l2.125-1.543a.364.364 0 00.134-.409.37.37 0 00-.35-.257z" fill="#fff"/></g></g><g fill="none" fill-rule="evenodd" clip-rule="evenodd"><path d="M43 135a2 2 0 00-2 2v11a2 2 0 002 2h5v-15h-5zm17 0a2 2 0 012 2v11a2 2 0 01-2 2h-5v-15h5z" fill="#E25950"/><path d="M44.5 141.375a1.688 1.688 0 100-3.375 1.688 1.688 0 000 3.375zm-1.688 1.125h1.125v4.5h-1.124v-4.5zm3.375 0h-1.124v4.5h1.125v-4.5z" fill="#FCD669"/><path d="M48 135h7v15h-7v-15z" fill="#45B2E8"/></g><g data-name="Layer 2"><g data-name="Layer 1"><path d="M91 150H74a2 2 0 01-2-2v-11a2 2 0 012-2h17a2 2 0 012 2v11a2 2 0 01-2 2zm1-13a1 1 0 00-1-1H74a1 1 0 00-1 1v11a1 1 0 001 1h17a1 1 0 001-1z" fill="#8898aa" opacity=".2" style="isolation:isolate"/><path d="M82 135v15h9.008A1.993 1.993 0 0093 148.008v-11.016A1.997 1.997 0 0091.008 135z" fill="#e25950"/><path d="M78 139h2v2h-2v2h-2v-2h-2v-2h2v-2h2z" fill="#9c9b9a" fill-opacity=".5"/></g></g><g data-name="Layer 2"><g data-name="Layer 1"><path fill="#f6f9fc" d="M109 135h9v15h-9v-15z"/><path data-name="Shape" d="M109 150v-1h9v1zm0-15h9v1h-9z" fill="#8898aa" opacity=".1" style="isolation:isolate"/><path data-name="Shape" d="M105 135h5v15h-5a2 2 0 01-2-2v-11a2 2 0 012-2z" fill="#24b47e"/><path data-name="Shape" d="M122 150h-5v-15h5a2 2 0 012 2v11a2 2 0 01-2 2z" fill="#e25950"/><path data-name="Shape" d="M111.575 143a1.913 1.913 0 003.827 0h.852l.002.014a2.753 2.753 0 11-5.505 0l.002-.014z" fill="#24b47e"/><path data-name="Shape" d="M113.5 141a1.5 1.5 0 11-1.5 1.5 1.5 1.5 0 011.5-1.5z" fill="#b5562b"/></g></g><path d="M153 150h-17a2 2 0 01-2-2v-7h8v-6h11a2 2 0 012 2v11a2 2 0 01-2 2z" fill="#e25950"/><path d="M134 146h21v1h-21zm0-2h21v1h-21zm0-2h21v1h-21zm8-2h13v1h-13zm0-2h13v1h-13zm0-2h12.72a2 2 0 01.28 1h-13zm12.72 13h-20.44a2 2 0 01-.28-1h21a2 2 0 01-.28 1z" fill="#f6f9fc"/><path d="M153 150h-17a2 2 0 01-2-2v-7h1v7a1 1 0 001 1h17a1 1 0 001-1v-11a1 1 0 00-1-1h-11v-1h11a2 2 0 012 2v11a2 2 0 01-2 2z" style="isolation:isolate" fill="#e25950" opacity=".2"/><path d="M144 135h-8a2 2 0 00-2 2v8h10z" fill="#555abf"/><path d="M140.5 142.75a2.75 2.75 0 111.84-4.75 3.5 3.5 0 10-2.84 5.5 3.46 3.46 0 002.84-1.5 2.73 2.73 0 01-1.84.75z" fill="#fcd669"/><circle cx="141.5" cy="140" r="1" fill="#fcd669"/><g data-name="Layer 2"><g data-name="Layer 1"><path fill="#f6f9fc" d="M168 150h3l15-10v-2l-18 12zm12-15l-15 10v2l18-12h-3z"/><path d="M183 135l-18 12a3 3 0 003 3l18-12a3 3 0 00-3-3z" fill="#e25950"/><path d="M168 135a3 3 0 00-3 3v7l15-10zm-1 4v-2h2v2z" fill="#43458b"/><path d="M183 150a3 3 0 003-3v-7l-15 10z" fill="#24b47e"/><path fill="#fcd669" d="M167 137h2v2h-2z"/></g></g><g data-name="Layer 2"><g data-name="Layer 1"><path d="M197.995 135a1.997 1.997 0 00-1.995 2.005V140h21v-2.995a2.006 2.006 0 00-1.995-2.005z" fill="#e25950"/><path fill="#fff" d="M196 140h21v5h-21z"/><path data-name="Rectangle-34" d="M196 145v2.995a2.006 2.006 0 001.995 2.005h17.01a1.997 1.997 0 001.995-2.005V145z" fill="#24b47e"/><circle cx="206.5" cy="142.5" r="1.5" fill="#e25950"/><path fill="#eaeef3" d="M196 140h1.001v5H196zm19.999 0H217v5h-1.001z"/></g></g><g data-name="Layer 2"><g data-name="Layer 1"><path d="M229.006 135a2 2 0 00-2.006 1.992v11.016a1.992 1.992 0 002.006 1.992H234v-15zM241 135v15h4.994a2 2 0 002.006-1.992v-11.016a1.992 1.992 0 00-2.006-1.992z" fill="#24b47e"/><path fill="#f6f9fc" d="M234 135h7v15h-7z"/><path fill="#eaeef3" d="M234 150v-1.001h7v1zm0-14v-1h7v1z"/></g></g><g data-name="Layer 2"><g data-name="Layer 1"><path d="M259.995 135a1.997 1.997 0 00-1.995 2.005V140h21v-2.995a2.006 2.006 0 00-1.995-2.005z" fill="#43458b"/><path fill="#fff" d="M258 140h21v5h-21z"/><path d="M258 145v2.995a2.006 2.006 0 001.995 2.005h17.01a1.997 1.997 0 001.995-2.005V145z" fill="#43458b"/><path d="M268.5 144a1.5 1.5 0 111.5-1.5 1.502 1.502 0 01-1.5 1.5zm0-2a.5.5 0 10.5.5.5.5 0 00-.5-.5z" fill="#fcd669"/><path fill="#eaeef3" d="M258 140h1.001v5H258zm19.999 0H279v5h-1.001z"/></g></g><g data-name="Layer 2"><g data-name="Layer 1"><path fill="#f6f9fc" d="M289 139h21v7h-21v-7z"/><path data-name="Shape" d="M309 146v-7h1v7zm-20-7h1v7h-1z" fill="#8898aa" opacity=".1" style="isolation:isolate"/><path d="M310 137v3h-21v-3a2 2 0 012-2h17a2 2 0 012 2z" fill="#e25950"/><path data-name="Shape" d="M289 148v-3h21v3a2 2 0 01-2 2h-17a2 2 0 01-2-2z" fill="#6772e5"/></g></g><g data-name="Layer 2"><g data-name="Layer 1"><path d="M322 135h17a2 2 0 012 2v11a2 2 0 01-2 2h-17a2 2 0 01-2-2v-11a2 2 0 012-2z" fill="#e25950"/><path data-name="Shape" fill="#f6f9fc" d="M341 144h-12v6h-3v-6h-6v-3h6v-6h3v6h12v3z"/><path data-name="Shape" d="M340 144v-3h1v3zm-14 5h3v1h-3zm0-14h3v1h-3zm-6 6h1v3h-1z" fill="#555abf" opacity=".1" style="isolation:isolate"/><path data-name="Shape" fill="#555abf" d="M341 143h-13v7h-1v-7h-7v-1h7v-7h1v7h13v1z"/></g></g><g data-name="Layer 2"><g data-name="Layer 1"><path d="M353 135h17a2 2 0 012 2v11a2 2 0 01-2 2h-17a2 2 0 01-2-2v-11a2 2 0 012-2z" fill="#43458b"/><path data-name="Shape" d="M351 140.664l3.498-2.4.001-.001h.001l.001.001 5.425 3.722h-1.767l-3.659-2.51-3.5 2.401zm9-5.569v1.213l-3.499 2.4-.001.001-.001-.001-4.758-3.264a1.983 1.983 0 011.121-.444l3.638 2.496z" fill="#f6f9fc"/><path data-name="Shape" d="M359.909 142l-3.659-2.51-3.659 2.51H351v-.121l5.249-3.601v-.001h.002v.001L360 140.85V142zm-5.158-3.278v.001h-.002v-.001l-3.601-2.47a1.99 1.99 0 01.601-.801l3.001 2.059 3.659-2.51H360v.121z" fill="#e25950"/><path data-name="Shape" fill="#f6f9fc" d="M360 139.625h-3.375V142h-2.25v-2.375H351v-2.25h3.375V135h2.25v2.375H360v2.25z"/><path data-name="Shape" fill="#e25950" d="M360 138.998h-4V142h-1v-3.002h-4v-.996h4V135h1v3.002h4v.996z"/><path data-name="Shape" d="M367.22 141.44a1.22 1.22 0 111.186-1.22 1.22 1.22 0 01-1.185 1.22zm-2-2a1.22 1.22 0 111.186-1.22 1.22 1.22 0 01-1.186 1.22zm-.78 1.781a1.22 1.22 0 11-1.22-1.186 1.22 1.22 0 011.22 1.186zm.78 3.781a1.22 1.22 0 11-1.185 1.22 1.22 1.22 0 011.185-1.22z" fill="#f6f9fc"/><path data-name="Shape" d="M367.188 140.874a.687.687 0 11.686-.688.687.687 0 01-.686.688zm-2 6.001a.688.688 0 11.687-.688.688.688 0 01-.688.688zm0-8.001a.687.687 0 11.685-.688.687.687 0 01-.685.688zm-2 3a.688.688 0 11.617-.336.688.688 0 01-.617.336z" fill="#e25950"/></g></g><g data-name="Layer 2"><g data-name="Layer 1"><path d="M386 135v6h17v-4.002a1.996 1.996 0 00-2-1.998z" fill="#f6f9fc"/><path d="M402.5 142.5v-5.502a1.502 1.502 0 00-1.495-1.498h-17.01" fill="none" stroke="#eaeef3"/><path d="M387 140v-5h-2.995a2 2 0 00-2.005 1.992v11.016a1.996 1.996 0 002.005 1.992H387v-5h16v-5z" fill="#e25950"/><path d="M387 145v5h14.006a1.997 1.997 0 001.994-2.005V145z" fill="#24b47e"/><path d="M384.5 137a.5.5 0 01.5.5.5.5 0 01-.5.5.5.5 0 01-.5-.5.5.5 0 01.5-.5z" fill="#fff"/></g></g><g data-name="Layer 2"><g data-name="Layer 1"><path d="M414.992 135a1.99 1.99 0 00-1.992 1.998V143h11v-8z" fill="#f7fafc"/><path d="M413.5 142.5h10v-7h-8.508a1.49 1.49 0 00-1.492 1.498z" fill="none" stroke="#e6e9ed"/><path d="M423 142v8h9.008a1.99 1.99 0 001.992-1.998V142z" fill="#f7fafc"/><path d="M423.5 142.5v7h8.508a1.49 1.49 0 001.492-1.498V142.5z" fill="none" stroke="#e6e9ed"/><path d="M430.792 145.318l-1.153.002a.16.16 0 01-.152-.11l-.357-1.098a.16.16 0 00-.305 0l-.357 1.097a.16.16 0 01-.152.11h-1.154a.16.16 0 00-.094.29l.933.679a.16.16 0 01.058.18l-.356 1.097a.16.16 0 00.247.18l.933-.626a.16.16 0 01.188 0l.934.626a.16.16 0 00.247-.18l-.357-1.097a.16.16 0 01.058-.18l.933-.678a.16.16 0 00.06-.18.163.163 0 00-.154-.112z" fill="#e25950"/><path d="M419.747 138.347l-1.14.002a.158.158 0 01-.15-.11l-.353-1.084a.158.158 0 00-.302 0l-.351 1.085a.158.158 0 01-.151.11h-1.14a.158.158 0 00-.093.287l.921.67a.158.158 0 01.058.178l-.352 1.084a.158.158 0 00.245.177l.921-.619a.158.158 0 01.186 0l.923.619a.158.158 0 00.244-.177l-.353-1.086a.158.158 0 01.058-.178l.922-.67a.158.158 0 00.058-.178.16.16 0 00-.15-.111zM413 143v4.994a2.004 2.004 0 001.992 2.006H424v-7z" fill="#217ab7"/><path data-name="Rectangle-34" d="M423 135v8h11v-6.002a2 2 0 00-1.992-1.998z" fill="#e25950"/></g></g><g data-name="Layer 2"><g data-name="Layer 1"><path d="M446.006 135a2 2 0 00-2.006 1.992v11.016a1.992 1.992 0 002.006 1.992H451v-15zM458 135v15h4.994a2 2 0 002.006-1.992v-11.016a1.992 1.992 0 00-2.006-1.992z" fill="#e25950"/><path fill="#f6f9fc" d="M451 135h7v15h-7z"/><path fill="#eaeef3" d="M451 150v-1.001h7v1zm0-14v-1h7v1z"/></g></g><g data-name="Layer 2"><g data-name="Layer 1"><path d="M496 136.992a2 2 0 00-1.995-1.992h-17.01a1.979 1.979 0 00-1.302.495l19.615 14.01a1.978 1.978 0 00.692-1.497z" fill="#e25950"/><path d="M475.693 135.495a1.978 1.978 0 00-.693 1.497v11.016a2 2 0 001.995 1.992h17.01a1.979 1.979 0 001.303-.495z"/><path d="M481.5 143a.5.5 0 01.5.5.5.5 0 01-.5.5.5.5 0 01-.5-.5.5.5 0 01.5-.5z" fill="#fff" fill-opacity=".8"/><path d="M480.5 145a.5.5 0 01.5.5.5.5 0 01-.5.5.5.5 0 01-.5-.5.5.5 0 01.5-.5z" fill="#fff" fill-opacity=".3"/><path d="M478.5 144a.5.5 0 01.5.5.5.5 0 01-.5.5.5.5 0 01-.5-.5.5.5 0 01.5-.5z" fill="#fff" fill-opacity=".9"/><path data-name="path-121" d="M479.5 147a.5.5 0 01.5.5.5.5 0 01-.5.5.5.5 0 01-.5-.5.5.5 0 01.5-.5z" fill="#fff" fill-opacity=".9"/><path d="M479.5 141a.5.5 0 01.5.5.5.5 0 01-.5.5.5.5 0 01-.5-.5.5.5 0 01.5-.5z" fill="#fff"/><path d="M490 139v-1.292c0-.557.353-.75.804-.418l2.892 2.12c.444.326.356.59-.195.59H491v1.506c0 .536-.35.721-.784.384l-2.932-2.28c-.43-.335-.337-.61.215-.61z" fill="#fac92e"/></g></g><g data-name="Layer 2"><g data-name="Layer 1"><path d="M507.418 135.096L517 142.5l-9.582 7.404A1.994 1.994 0 01506 148v-11a1.994 1.994 0 011.418-1.904z" fill="#f6f9fc"/><path data-name="Shape" d="M508 136a1 1 0 00-1 1v11a1 1 0 001 1h1v1h-1a2 2 0 01-2-2v-11a2 2 0 012-2h1v1z" fill="#8898aa" opacity=".2" style="isolation:isolate"/><path data-name="Shape" d="M525 150h-17a1.982 1.982 0 01-1.291-.484L517 142.5l-.733-.5H527v6a2 2 0 01-2 2z" fill="#e25950"/><path data-name="Shape" d="M506.709 135.484A1.982 1.982 0 01508 135h17a2 2 0 012 2v5.5h-10z" fill="#555abf"/><path data-name="Shape" d="M510.507 140a2.502 2.502 0 11-2.493 2.5 2.496 2.496 0 012.493-2.5z" fill="#f5be58"/></g></g><g data-name="Layer 2"><g data-name="Layer 1"><path d="M12 160h17a2 2 0 012 2v11a2 2 0 01-2 2H12a2 2 0 01-2-2v-11a2 2 0 012-2z" fill="#f6f9fc"/><path data-name="Shape" d="M29 175H12a2 2 0 01-2-2v-11a2 2 0 012-2h17a2 2 0 012 2v11a2 2 0 01-2 2zm1-13a1 1 0 00-1-1H12a1 1 0 00-1 1v11a1 1 0 001 1h17a1 1 0 001-1z" fill="#8898aa" opacity=".2" style="isolation:isolate"/><path d="M16 160v15h13.008A1.993 1.993 0 0031 173.008v-11.016A1.993 1.993 0 0029.008 160z" fill="#24b47e"/><path d="M22.937 162a4.206 4.206 0 00-2.071 3.566 4.488 4.488 0 004.664 4.29 4.946 4.946 0 002.47-.65A4.73 4.73 0 0123.747 172 4.898 4.898 0 0119 166.963 4.962 4.962 0 0122.937 162z" fill="#fff"/><circle cx="26" cy="165" r="1" fill="#fff"/></g></g><g data-name="Layer 2"><g data-name="Layer 1"><path fill="#fff" d="M42 160.89h19v6.354H42z"/><path d="M41.5 167.5h20v-5.502a1.502 1.502 0 00-1.495-1.498h-17.01a1.491 1.491 0 00-1.495 1.498z" fill="none" stroke="#dfe5eb"/><path d="M41 167v6.002A2.002 2.002 0 0042.995 175h17.01A1.991 1.991 0 0062 173.002V167z" fill="#e25950"/></g></g><path d="M74 160a2 2 0 00-2 2v3h21v-3a2 2 0 00-2-2z" fill="#e25950"/><path fill="#f6f9fc" d="M72 165h21v5H72z"/><path fill="#eaeef3" d="M92 165h1v5h-1z"/><path d="M72 170v3a2 2 0 002 2h17a2 2 0 002-2v-3z" fill="#e25950"/><path d="M74 175l8-7.5-8-7.5a2 2 0 00-2 2v11a2 2 0 002 2z" fill="#555abf"/><path fill="#f6f9fc" d="M75.5 165.29l.65 1.32 1.45.21-1.05 1.02.25 1.45-1.3-.68-1.3.68.25-1.45-1.05-1.02 1.45-.21.65-1.32z"/><path d="M105 160a2 2 0 00-2 2v3h21v-3a2 2 0 00-2-2z"/><path fill="#f6f9fc" d="M103 165h21v5h-21z"/><path fill="#eaeef3" d="M123 165h1v5h-1z"/><path d="M103 170v3a2 2 0 002 2h17a2 2 0 002-2v-3z" fill="#0a9362"/><path d="M105 175l8-7.5-8-7.5a2 2 0 00-2 2v11a2 2 0 002 2z" fill="#e25950"/><g data-name="Layer 2"><g data-name="Layer 1"><path d="M142 175h-6a2 2 0 01-2-2v-11a2 2 0 012-2h6z" fill="#24b47e"/><path d="M153 175h-12v-15h12a2 2 0 012 2v11a2 2 0 01-2 2z" fill="#e25950"/><path d="M144.003 167.5a3.531 3.531 0 100 .001z" fill="#fcd669"/><path d="M140.425 165.001a2.5 2.5 0 11-2.424 2.574L138 167.5a2.5 2.5 0 012.425-2.499z" fill="#e25950"/><path d="M139.5 166h2v2.031a1 1 0 01-2 0z" fill="#f6f9fc"/></g></g><g data-name="Layer 2"><g data-name="Layer 1"><path d="M166.995 160a1.997 1.997 0 00-1.995 2.005V165h21v-2.995a2.006 2.006 0 00-1.995-2.005z" fill="#e25950"/><path fill="#fff" d="M165 165h21v5h-21z"/><path d="M165 170v2.995a2.006 2.006 0 001.995 2.005h17.01a1.997 1.997 0 001.995-2.005V170z" fill="#43458b"/><path d="M175.5 169a1.5 1.5 0 111.5-1.5 1.502 1.502 0 01-1.5 1.5zm0-2a.5.5 0 10.5.5.5.5 0 00-.5-.5z" fill="#e25950"/><path fill="#eaeef3" d="M165 165h1.001v5H165zm19.999 0H186v5h-1.001z"/></g></g><g data-name="Layer 2"><g data-name="Layer 1"><path d="M198 160h17a2 2 0 012 2v11a2 2 0 01-2 2h-17a2 2 0 01-2-2v-11a2 2 0 012-2z" fill="#f6f9fc"/><path data-name="Shape" d="M215 175h-17a2 2 0 01-2-2v-11a2 2 0 012-2h17a2 2 0 012 2v11a2 2 0 01-2 2zm1-13a1 1 0 00-1-1h-17a1 1 0 00-1 1v11a1 1 0 001 1h17a1 1 0 001-1z" fill="#8898aa" opacity=".2" style="isolation:isolate"/><path d="M205 175h-2l-1-.5 2-1-2-1 2-1-2-1 2-1-2-1 2-1-2-1 2-1-2-1 2-1-2-1 2-1-2-1 1-.5h11.991a2.002 2.002 0 012.009 1.992v11.016a2.001 2.001 0 01-2.009 1.992z" fill="#b1372f"/></g></g><g fill="none" fill-rule="evenodd"><g fill="#6772E5" fill-rule="nonzero"><path d="M246 175h-15.567l6.957-15H246a2 2 0 012 2v11a2 2 0 01-2 2z"/><path d="M231.438 175H229a2 2 0 01-2-2v-11a2 2 0 012-2h11.098l-8.66 15z"/></g><path fill="#FFF" d="M234 171l6.856-1.453V164L234 165.453z"/></g><g data-name="Layer 2"><g data-name="Layer 1"><path d="M260.006 160a2 2 0 00-2.006 1.992v11.016a1.992 1.992 0 002.006 1.992H265v-15z" fill="#43458b"/><path d="M272 160v15h4.994a2 2 0 002.006-1.992v-11.016a1.992 1.992 0 00-2.006-1.992z" fill="#e25950"/><path data-name="Rectangle-295" fill="#fcd669" d="M265 160h7v15h-7z"/></g></g><g fill="none"><path d="M291 160a2 2 0 00-2 2v3h21v-3a2 2 0 00-2-2h-17z" fill="#E25950"/><path d="M310 165h-21v5h21v-5z" fill="#43458B"/><path d="M289 170v3a2 2 0 002 2h17a2 2 0 002-2v-3h-21z" fill="#F6F9FC"/><path d="M299 163h-7v5.5a3.5 3.5 0 007 0V163z" fill="#E25950"/><path d="M291 174a1 1 0 01-1-1v-3h-1v3a2 2 0 002 2h17a2 2 0 002-2v-3h-1v3a1 1 0 01-1 1h-17z" fill="#EAEEF3"/><path d="M293 165h5v4l-2 1-.5 1-.5-1-2-1v-4z" fill="#F6F9FC"/><path d="M295 168v1c-.8 0-1-.667-1-1h1z" fill="#fff"/><path d="M295 168v1c-.8 0-1-.667-1-1h1z" fill="#E25950"/><path d="M296 168h1c0 .8-.667 1-1 1v-1z" fill="#fff"/><path d="M296 168h1c0 .8-.667 1-1 1v-1z" fill="#E25950"/><path d="M294 166h1v1h-1v-1z" fill="#fff"/><path d="M294 166h1v1h-1v-1z" fill="#E25950"/><path d="M297 166h-1v1h1v-1z" fill="#fff"/><path d="M297 166h-1v1h1v-1z" fill="#E25950"/><circle cx="294.5" cy="164.5" r=".5" fill="#F6F9FC"/><circle cx="296.5" cy="164.5" r=".5" fill="#F6F9FC"/><path d="M297 164v1l1-.5-1-.5zm-3 1v-1l-1 .5 1 .5zm-1-2h5v1h-5z" fill="#E9C152"/></g><g data-name="Layer 2"><g data-name="Layer 1"><path d="M321.995 160a1.999 1.999 0 00-1.995 1.998V166h21v-4.002a2.002 2.002 0 00-1.995-1.998z" fill="#f6f9fc"/><path d="M320.5 165.5h20v-3.502a1.502 1.502 0 00-1.495-1.498h-17.01a1.499 1.499 0 00-1.495 1.498z" fill="none" stroke="#dfe5eb"/><path fill="#43458b" d="M320 165h21v5h-21z"/><path data-name="Rectangle-34" d="M320 170v2.995a2.006 2.006 0 001.995 2.005h17.01a1.997 1.997 0 001.995-2.005V170z" fill="#e25950"/></g></g><g data-name="Layer 2"><g data-name="Layer 1"><path d="M352.995 160a1.993 1.993 0 00-1.995 2.006V167h21v-4.994a2.006 2.006 0 00-1.995-2.006z" fill="#45b2e8"/><path fill="#fcd669" d="M351 167h21v4h-21z"/><path data-name="Rectangle-34" d="M351 171v2a2.003 2.003 0 001.995 2h17.01a1.992 1.992 0 001.995-2v-2z" fill="#24b47e"/><circle cx="368.5" cy="163.5" r="1.5" fill="#fcd669"/></g></g><g data-name="Layer 2"><g data-name="Layer 1"><rect width="21" height="15" rx="2" ry="2" fill="#24b47e" x="382" y="160"/><path d="M397 170h1l-.5 1h-.5v1l-1-.5v-.5h-6.508L387 170h9v-.5l1-.5z" fill="#fff"/><path data-name="Rectangle-584" fill="#fff" d="M396 164l1.657.146.343.854v2h-1l-1.492-.528L395 167v-3h1zm-3.283.375L394 164v3l-1.283-.488L391 167l.172-1.858L391 164l1.717.375zM389 164l1 1v2l-.764-.343L388 167l-.994-.006.183-2.917L389 164z"/></g></g><g data-name="Layer 2"><g data-name="Layer 1"><path d="M415 160h17a2 2 0 012 2v11a2 2 0 01-2 2h-17a2 2 0 01-2-2v-11a2 2 0 012-2z" fill="#217ab7"/><path data-name="Shape" fill="#fcd669" d="M434 169h-12v6h-3v-6h-6v-3h6v-6h3v6h12v3z"/></g></g><g data-name="Layer 2"><g data-name="Layer 1"><path d="M445.995 160a1.991 1.991 0 00-1.995 1.998V168h21v-6.002a2.002 2.002 0 00-1.995-1.998z" fill="#ea2c3f"/><path d="M465 167v6a2 2 0 01-2 2h-17a2 2 0 01-2-2v-6z" fill="#f6f9fc"/><path data-name="Shape" d="M463 175h-17a2 2 0 01-2-2v-6h1v6a1 1 0 001 1h17a1 1 0 001-1v-6h1v6a2 2 0 01-2 2z" fill="#8898aa" opacity=".2" style="isolation:isolate"/><path data-name="Shape" d="M444 168v-6a2 2 0 012-2h17a2 2 0 012 2v6z" fill="#e25950"/><path data-name="Shape" d="M448.368 163.96a2.367 2.367 0 002.354 2.367A2.956 2.956 0 11448.96 161a2.936 2.936 0 011.762.593 2.367 2.367 0 00-2.354 2.367zm6.194.415a.594.594 0 11.57-.593.594.594 0 01-.57.593zm-1.5-1.187a.594.594 0 11.595-.593.594.594 0 01-.595.593zm-.281 2.375a.594.594 0 11-.594-.594.594.594 0 01.594.594zm-1.187-1.188a.594.594 0 11.594-.594.594.594 0 01-.594.594zm2.375.594a.593.593 0 11-.593.593.593.593 0 01.593-.593z" fill="#f6f9fc"/></g></g><path d="M477 160a2 2 0 00-2 2v3h21v-3a2 2 0 00-2-2z" fill="#f6f9fc"/><path fill="#555abf" d="M475 165h21v5h-21z"/><path d="M475 170v3a2 2 0 002 2h17a2 2 0 002-2v-3z" fill="#e25950"/><path d="M484 164v4.5a2.5 2.5 0 01-5 0V164h5m1-1h-7v5.5a3.5 3.5 0 007 0V163z" fill="#e25950"/><path d="M479 164h5v4.5a2.5 2.5 0 01-2.5 2.5 2.5 2.5 0 01-2.5-2.5V164z" fill="#555abf"/><path d="M481.5 171a2.5 2.5 0 01-2.5-2.5l1-.84.51.42.99-1.08 1 1.08.5-.41 1 .83a2.5 2.5 0 01-2.5 2.5z" fill="#f6f9fc"/><circle cx="480.5" cy="165.04" r=".5" fill="#f6f9fc"/><circle cx="482.5" cy="165.04" r=".5" fill="#f6f9fc"/><circle cx="481.49" cy="166.17" r=".5" fill="#f6f9fc"/><path d="M494 161a1 1 0 011 1v3h1v-3a2 2 0 00-2-2h-17a2 2 0 00-2 2v3h1v-3a1 1 0 011-1h17" fill="#eaeef3"/><path d="M508 160a2 2 0 00-2 2v3h21v-3a2 2 0 00-2-2z" fill="#f6f9fc"/><path fill="#555abf" d="M506 165h21v5h-21z"/><path d="M506 170v3a2 2 0 002 2h17a2 2 0 002-2v-3z" fill="#e25950"/><path d="M509 163h7v5.5a3.5 3.5 0 01-3.5 3.5 3.5 3.5 0 01-3.5-3.5V163z" fill="#f6f9fc"/><path d="M510 164h5v4.5a2.5 2.5 0 01-2.5 2.5 2.5 2.5 0 01-2.5-2.5V164z" fill="#ed1c24"/><path d="M512.5 171a2.5 2.5 0 01-2.5-2.5h5a2.5 2.5 0 01-2.5 2.5z" fill="#555abf"/><path d="M525 161a1 1 0 011 1v3h1v-3a2 2 0 00-2-2h-17a2 2 0 00-2 2v3h1v-3a1 1 0 011-1h17" fill="#eaeef3"/><path fill="#f6f9fc" d="M512 164.5h1v4h-1z"/><path fill="#f6f9fc" d="M511 165h3v1h-3zm-.5 2h4v1h-4z"/><g data-name="Layer 2"><g data-name="Layer 1"><path d="M11.995 185A1.997 1.997 0 0010 187.005V190h21v-2.995A2.006 2.006 0 0029.005 185z" fill="#24b47e"/><path fill="#fff" d="M10 190h21v5H10z"/><path data-name="Rectangle-34" d="M10 195v2.995A2.006 2.006 0 0011.995 200h17.01A1.997 1.997 0 0031 197.995V195z" fill="#217ab7"/><path fill="#eaeef3" d="M10 190h1.001v5H10zm19.999 0H31v5h-1.001z"/></g></g><g data-name="Layer 2"><g data-name="Layer 1"><path d="M43.006 185A2 2 0 0041 186.992v11.016A1.992 1.992 0 0043.006 200H48v-15z" fill="#24b47e"/><path d="M55 185v15h4.994A2 2 0 0062 198.008v-11.016A1.992 1.992 0 0059.994 185z" fill="#e25950"/><path data-name="Rectangle-295" fill="#fcd669" d="M48 185h7v15h-7z"/><path d="M53.796 191.667l-1.458.003a.202.202 0 01-.193-.14l-.452-1.387a.202.202 0 00-.386 0l-.45 1.386a.202.202 0 01-.193.14h-1.46a.202.202 0 00-.118.368l1.18.857a.202.202 0 01.073.228l-.45 1.387a.202.202 0 00.313.227l1.18-.791a.202.202 0 01.238 0l1.18.791a.202.202 0 00.313-.227l-.452-1.387a.202.202 0 01.074-.228l1.18-.857a.202.202 0 00.075-.227.205.205 0 00-.194-.143z" fill="#24b47e"/></g></g><g data-name="Layer 2"><g data-name="Layer 1"><rect width="21" height="15" rx="2" ry="2" fill="#217ab7" x="72" y="185"/><path d="M86.633 191l-2.625.006a.364.364 0 01-.347-.253l-.813-2.497a.364.364 0 00-.695 0l-.811 2.496a.364.364 0 01-.347.253h-2.626a.364.364 0 00-.215.661l2.124 1.544a.364.364 0 01.132.409l-.81 2.497a.364.364 0 00.562.41l2.124-1.426a.364.364 0 01.43 0l2.125 1.425a.364.364 0 00.563-.409l-.813-2.497a.364.364 0 01.132-.41l2.125-1.543a.364.364 0 00.134-.409.37.37 0 00-.35-.257z" fill="#fff"/></g></g><g data-name="Layer 2"><g data-name="Layer 1"><path d="M104.995 185a1.997 1.997 0 00-1.995 2.005V190h21v-2.995a2.006 2.006 0 00-1.995-2.005z" fill="#555abf"/><path fill="#f6f9fc" d="M103 190h21v5h-21z"/><path fill="#eaeef3" d="M103 190h1.001v5H103zm19.999 0H124v5h-1.001z"/><path d="M103 195v2.995a2.006 2.006 0 001.995 2.005h17.01a1.997 1.997 0 001.995-2.005V195z" fill="#555abf" data-name="Rectangle-34"/><path d="M113.5 194a1.5 1.5 0 111.5-1.5 1.502 1.502 0 01-1.5 1.5zm0-2a.5.5 0 10.5.5.5.5 0 00-.5-.5z" fill="#efcf57"/></g></g><g data-name="Layer 2"><g data-name="Layer 1"><path d="M136.006 185a2 2 0 00-2.006 1.992v11.016a1.992 1.992 0 002.006 1.992H141v-15z" fill="#43458b"/><path d="M148 185v15h4.994a2 2 0 002.006-1.992v-11.016a1.992 1.992 0 00-2.006-1.992z" fill="#e25950"/><path data-name="Rectangle-295" fill="#fcd669" d="M141 185h7v15h-7z"/></g></g><path d="M186 188h-21v-1a2 2 0 012-2h17a2 2 0 012 2z" fill="#e25950"/><path fill="#f9f9f9" d="M165 188h21v2h-21z"/><path fill="#eaeef3" d="M165 188h1v2h-1z"/><path fill="#f9f9f9" d="M165 195h21v2h-21z"/><path d="M165 197h21v1a2 2 0 01-2 2h-17a2 2 0 01-2-2z" fill="#e25950"/><path fill="#555abf" d="M165 190h21v5h-21z"/><path fill="#eaeef3" d="M165 195h1v2h-1zm20-7h1v2h-1zm0 7h1v2h-1z"/><g data-name="Layer 2"><g data-name="Layer 1"><path d="M197.995 185a1.997 1.997 0 00-1.995 2.005V190h21v-2.995a2.006 2.006 0 00-1.995-2.005z" fill="#ca0814"/><path fill="#fff" d="M196 190h21v5h-21z"/><path data-name="Rectangle-34" d="M196 195v2.995a2.006 2.006 0 001.995 2.005h17.01a1.997 1.997 0 001.995-2.005V195z" fill="#24b47e"/><path d="M202 193.5a.5.5 0 11.5.5.5.5 0 01-.5-.5zm2-1a.5.5 0 11.5.5.5.5 0 01-.5-.5zm2-1a.5.5 0 11.5.5.5.5 0 01-.5-.5zm2 1a.5.5 0 11.5.5.5.5 0 01-.5-.5zm2 1a.5.5 0 11.5.5.5.5 0 01-.5-.5zm-4 0a.5.5 0 11.5.5.5.5 0 01-.5-.5z"/><path data-name="path-174" d="M202 193.5a.5.5 0 11.5.5.5.5 0 01-.5-.5zm2-1a.5.5 0 11.5.5.5.5 0 01-.5-.5zm2-1a.5.5 0 11.5.5.5.5 0 01-.5-.5zm2 1a.5.5 0 11.5.5.5.5 0 01-.5-.5zm2 1a.5.5 0 11.5.5.5.5 0 01-.5-.5zm-4 0a.5.5 0 11.5.5.5.5 0 01-.5-.5z" fill="#fcd669"/><path fill="#eaeef3" d="M196 190h1.001v5H196zm19.999 0H217v5h-1.001z"/></g></g><g data-name="Layer 2"><g data-name="Layer 1"><path d="M246 185h-17a1.99 1.99 0 00-1.438.615.813.813 0 01.205.116l.643.528L240 192.5l-11.59 6.241-.642.528a.813.813 0 01-.206.116A1.99 1.99 0 00229 200h17a2 2 0 002-2v-11a2 2 0 00-2-2z" fill="#e25950"/><path fill="#fcd669" d="M228.41 198.741L240 192.5l-11.59-6.241L236 192.5l-7.59 6.241z"/><path d="M227.873 185.97l.537.289-.643-.528a.813.813 0 00-.206-.116 2.008 2.008 0 00-.238.301.623.623 0 01.55.054zm.537 12.771l-.537.289a.623.623 0 01-.55.054 1.998 1.998 0 00.239.3.813.813 0 00.205-.115z"/><path d="M227.873 199.03l.537-.289L236 192.5l-7.59-6.241-.537-.289a.623.623 0 00-.55-.054A1.987 1.987 0 00227 187v11a1.986 1.986 0 00.323 1.084.623.623 0 00.55-.054zM230.5 191a1.5 1.5 0 11-1.5 1.5 1.5 1.5 0 011.5-1.5z"/><circle cx="230.5" cy="192.5" r="1.5" fill="#f7fafc"/></g></g><g fill="none" fill-rule="evenodd" clip-rule="evenodd"><path d="M260 185a2 2 0 00-2 2v11a2 2 0 002 2h17a2 2 0 002-2v-11a2 2 0 00-2-2h-17z" fill="#E25950"/><path d="M269 197a4 4 0 100-8 4 4 0 000 8zm1.334-6.31a2.333 2.333 0 100 4.62 2.667 2.667 0 110-4.62zM269 193a1.333 1.333 0 102.667 0 1.333 1.333 0 00-2.667 0z" fill="#fff"/></g><g data-name="Layer 2"><g data-name="Layer 1"><rect width="21" height="15" rx="2" ry="2" fill="#e25950" x="289" y="185"/><path d="M298.431 188.096a4.403 4.403 0 00-3.431 4.251 4.426 4.426 0 004.104 4.359 4.5 4.5 0 11-.673-8.61z" fill="#fff"/><circle cx="300.5" cy="192.5" r="1.5" fill="#fff"/></g></g><rect fill="#f6f9fc" width="21" height="15" rx="3" x="320" y="185"/><path fill="#e25950" d="M339 185a2 2 0 012 2v8l-15-10zm-19 13a2 2 0 002 2h13l-15-10z"/><path d="M322 185h1l18 12v1a2 2 0 01-2 2h-1l-18-12v-1a2 2 0 012-2z"/><rect width="21" height="15" rx="2" fill="#e25950" x="351" y="185"/><path d="M353 185h7v9h-9v-7a2 2 0 012-2z" fill="#555abf"/><circle cx="355.5" cy="189.5" r="2.5" fill="#fff"/><g data-name="Layer 2"><g data-name="Layer 1"><path fill="#fcd669" d="M388 200l15-10v-2l-18 12h3zm9-15l-15 10v2l18-12h-3z"/><path d="M385 185h-1.008a1.99 1.99 0 00-1.992 2v8l15-10z" fill="#24b47e"/><path d="M388 200h13.008a1.997 1.997 0 001.992-2v-8z" fill="#45b2e8"/><path d="M401 185h-1l-18 12v1a2 2 0 002 2h1l18-12v-1a2 2 0 00-2-2z"/></g></g><g data-name="Layer 2"><g data-name="Layer 1"><path d="M414.995 185a1.991 1.991 0 00-1.995 1.998V193h21v-6.002a2.002 2.002 0 00-1.995-1.998z" fill="#45b2e8"/><path data-name="Rectangle-295" d="M413 193v4.994a2.006 2.006 0 001.995 2.006h17.01a1.993 1.993 0 001.995-2.006V193z" fill="#fcd669"/></g></g><path d="M463 185h-17a2 2 0 00-2 2v11h21v-11a2 2 0 00-2-2z" fill="#f6f9fc"/><path fill="#012b7f" d="M445 197h19v2h-19z"/><circle cx="448.5" cy="189.5" r="2.5" fill="#fcd669"/><path fill="#012b7f" d="M445 193.33h19v2h-19zm8-3.66h11v2h-11zm0-3.67h9.93a1.07 1.07 0 011.07 1.07v.93h-11v-2z"/><path d="M444 198a2 2 0 002 2h17a2 2 0 002-2v-11a2 2 0 00-2-2h-17a2 2 0 00-2 2zm1-11a1 1 0 011-1h17a1 1 0 011 1v11a1 1 0 01-1 1h-17a1 1 0 01-1-1z" fill="#eaeef3"/><g data-name="Layer 2"><g data-name="Layer 1"><path d="M494 200h-17a2 2 0 01-2-2v-7h8v-6h11a2 2 0 012 2v11a2 2 0 01-2 2z" fill="#e25950"/><path data-name="Shape" d="M475 196h21v1h-21zm0-2h21v1h-21zm0-2h21v1h-21zm8-2h13v1h-13zm0-2h13v1h-13zm0-2h12.723a1.987 1.987 0 01.277 1h-13zm12.723 13h-20.446a1.986 1.986 0 01-.277-1h21a1.987 1.987 0 01-.277 1z" fill="#f6f9fc"/><path data-name="Shape" d="M494 200h-17a2 2 0 01-2-2v-7h1v7a1 1 0 001 1h17a1 1 0 001-1v-11a1 1 0 00-1-1h-11v-1h11a2 2 0 012 2v11a2 2 0 01-2 2z" fill="#e25950" opacity=".2" style="isolation:isolate"/><path data-name="Shape" d="M475 192v-5a2 2 0 012-2h7v7z" fill="#43458b"/><path data-name="Shape" d="M482.73 187.408a.703.703 0 11.676-.703.703.703 0 01-.676.703zm-.297 1.297a.704.704 0 11-.704-.705.704.704 0 01.704.704zm-1.703-1.297a.704.704 0 11.677-.704.704.704 0 01-.677.704zm-.297 1.297a.704.704 0 11-.704-.705.704.704 0 01.704.704zm-1.703-1.297a.704.704 0 11.677-.704.704.704 0 01-.677.704zm-.297 1.297a.704.704 0 11-.704-.705.704.704 0 01.704.704zm-1.703-1.297a.703.703 0 11.676-.703.703.703 0 01-.676.703zm0 2.592a.704.704 0 11-.678.703.704.704 0 01.678-.703zm2 0a.704.704 0 11-.678.703.704.704 0 01.678-.703zm2 0a.704.704 0 11-.678.703.704.704 0 01.678-.703zm2 0a.704.704 0 11-.678.703.704.704 0 01.678-.703z" fill="#fff"/><path data-name="Shape" d="M484 189.21a.703.703 0 110-1.011zm-9-.975a.697.697 0 011.219.47.703.703 0 01-.703.703.694.694 0 01-.516-.234z" fill="#fff" opacity=".5" style="isolation:isolate"/></g></g><path d="M516 185h9a2 2 0 012 2v11h-11v-13z" fill="#f6f9fc"/><path fill="#012b7f" d="M507 197h19v2h-19z"/><path fill="#eaeef3" d="M526 186.5h1v11h-1z"/><path d="M508 185h8v12h-10v-10a2 2 0 012-2z" fill="#f6f9fc"/><circle cx="510.5" cy="189.5" r="2.5" fill="#fcd669"/><path fill="#012b7f" d="M507 193.33h19v2h-19zm8-3.66h11v2h-11zm0-3.67h9.93a1.07 1.07 0 011.07 1.07v.93h-11v-2z"/><g fill="#eaeef3"><path d="M506 188h1v10h-1z"/><path d="M525 186a1 1 0 011 1v3h1v-3a2 2 0 00-2-2h-17a2 2 0 00-2 2v3h1v-3a1 1 0 011-1h17m0 13a1 1 0 001-1v-3h1v3a2 2 0 01-2 2h-17a2 2 0 01-2-2v-3h1v3a1 1 0 001 1h17"/></g><g data-name="Layer 2"><g data-name="Layer 1"><path d="M11.995 210A1.997 1.997 0 0010 212.005V215h21v-2.995A2.006 2.006 0 0029.005 210z" fill="#fcd669"/><path d="M10 220v2.995A2.006 2.006 0 0011.995 225h17.01A1.997 1.997 0 0031 222.995V220z" fill="#e25950"/><path fill="#43458b" d="M10 215h21v6H10z"/><path d="M16 219.5a.5.5 0 11.5.5.5.5 0 01-.5-.5zm1-2a.5.5 0 11.5.5.5.5 0 01-.5-.5zm3-1a.5.5 0 11.5.5.5.5 0 01-.5-.5zm3 1a.5.5 0 11.5.5.5.5 0 01-.5-.5zm1 2a.5.5 0 11.5.5.5.5 0 01-.5-.5z" fill="#fff"/></g></g><g data-name="Layer 2"><g data-name="Layer 1"><rect width="21" height="15" rx="2" ry="2" fill="#e25950" x="41" y="210"/><path d="M55.633 216l-2.625.006a.364.364 0 01-.347-.253l-.813-2.497a.364.364 0 00-.695 0l-.811 2.496a.364.364 0 01-.347.253h-2.626a.364.364 0 00-.215.661l2.124 1.544a.364.364 0 01.132.409l-.81 2.497a.364.364 0 00.562.41l2.124-1.426a.364.364 0 01.43 0l2.125 1.425a.364.364 0 00.563-.409l-.813-2.497a.364.364 0 01.132-.41l2.125-1.543a.364.364 0 00.134-.409.37.37 0 00-.35-.257z" fill="#fcd669"/></g></g><g data-name="Layer 2"><path d="M91 225H79.902l8.66-15H91a2 2 0 012 2v11a2 2 0 01-2 2zm-14.562 0H74a2 2 0 01-2-2v-11a2 2 0 012-2h11.098z" data-name="Layer 1"/></g><g data-name="Layer 2"><g data-name="Layer 1"><path d="M104.995 210a1.997 1.997 0 00-1.995 2.005V215h21v-2.995a2.006 2.006 0 00-1.995-2.005z" fill="#e25950"/><path fill="#fff" d="M103 215h21v5h-21z"/><path data-name="Rectangle-34" d="M103 220v2.995a2.006 2.006 0 001.995 2.005h17.01a1.997 1.997 0 001.995-2.005V220z"/><path fill="#eaeef3" d="M103 215h1.001v5H103zm19.999 0H124v5h-1.001z"/></g></g><path fill="#f6f9fc" d="M137 210h18v15h-18z"/><path d="M144.24 214.25H155V212a2 2 0 00-2-2h-14.71z" fill="#e25950"/><path d="M138.29 225H153a2 2 0 002-2v-2.25h-10.76z" fill="#012b7f"/><path d="M155 220h-11l-7 5h-1a2 2 0 01-2-2v-11a2 2 0 012-2h1l7 5h11z" fill="#24b47e"/><path d="M134 222v-9l6.5 4.5-6.5 4.5z"/><path fill="#fcd669" d="M134.43 212.38l-.43-.29v.91l6.5 4.5-6.5 4.5v.91l.43-.29 6.5-4.5.89-.62-.89-.62-6.5-4.5z"/></svg>