<svg width="148" height="40" viewBox="0 0 148 40" fill="none" xmlns="http://www.w3.org/2000/svg">
<path d="M13.4345 15.8634C18.6717 13.3586 22.7704 9.10816 25.1233 3.79507C23.6053 2.20114 21.6319 1.06262 19.5066 0.379507L18.3681 0C18.2922 0.151803 18.2163 0.379516 18.2163 0.531318C16.3947 5.69261 12.6755 9.86718 7.66604 12.2201C4.17458 13.8899 1.59393 16.926 0.379507 20.5693L0 21.7078C0.151803 21.7837 0.37951 21.8596 0.531313 21.8596C1.97344 22.3909 3.41556 23.074 4.78179 23.9089C6.67932 20.4934 9.71537 17.6091 13.4345 15.8634Z" fill="#087443"/>
<path d="M35.4459 16.167C32.6376 20.4175 28.7666 23.833 23.9848 26.1101C20.1138 27.9317 17.1537 31.3473 15.7875 35.4459L15.408 36.7362C16.8501 38.0266 18.5958 39.0133 20.4933 39.6205L21.6319 40C21.7078 39.8482 21.7837 39.6205 21.7837 39.4687C23.6053 34.3074 27.3245 30.1328 32.334 27.7799C35.8254 26.1101 38.482 23.074 39.6205 19.4308L40 18.2922C38.4061 17.8368 36.888 17.0778 35.4459 16.167Z" fill="#16B364"/>
<path d="M12.3719 32.7893C14.2695 28.2352 17.7609 24.516 22.2391 22.3908C26.3378 20.4173 29.7533 17.3813 32.1063 13.6621C30.3605 11.9923 28.9184 10.0948 27.8558 7.81772C25.0474 12.979 20.6452 17.1536 15.2562 19.7342C12.1442 21.1764 9.63949 23.6811 8.12146 26.7172C9.79129 28.3111 11.1575 30.2845 12.2201 32.4856C12.2201 32.4856 12.296 32.6375 12.3719 32.7893Z" fill="#099250"/>
<path d="M52.321 31V13.5455H64.4915V16.9716H56.5398V20.5511H63.8693V23.9858H56.5398V27.5739H64.4915V31H52.321ZM73.2443 31.2472C71.8636 31.2472 70.679 30.9631 69.6903 30.3949C68.7074 29.8267 67.9517 29.0369 67.4233 28.0256C66.8949 27.0085 66.6307 25.8324 66.6307 24.4972C66.6307 23.1562 66.8949 21.9801 67.4233 20.9688C67.9574 19.9517 68.7159 19.1591 69.6989 18.5909C70.6875 18.0227 71.8665 17.7386 73.2358 17.7386C74.446 17.7386 75.5 17.9574 76.3977 18.3949C77.3011 18.8324 78.0057 19.4517 78.5114 20.2528C79.0227 21.0483 79.2926 21.983 79.321 23.0568H75.4261C75.3466 22.3864 75.1193 21.8608 74.7443 21.4801C74.375 21.0994 73.892 20.9091 73.2955 20.9091C72.8125 20.9091 72.3892 21.0455 72.0256 21.3182C71.6619 21.5852 71.3778 21.983 71.1733 22.5114C70.9744 23.0341 70.875 23.6818 70.875 24.4545C70.875 25.2273 70.9744 25.8807 71.1733 26.4148C71.3778 26.9432 71.6619 27.3437 72.0256 27.6165C72.3892 27.8835 72.8125 28.017 73.2955 28.017C73.6818 28.017 74.0227 27.9347 74.3182 27.7699C74.6193 27.6051 74.8665 27.3636 75.0597 27.0455C75.2528 26.7216 75.375 26.3295 75.4261 25.8693H79.321C79.2812 26.9489 79.0114 27.892 78.5114 28.6989C78.017 29.5057 77.321 30.1335 76.4233 30.5824C75.5313 31.0256 74.4716 31.2472 73.2443 31.2472ZM87.5646 31.2472C86.1896 31.2472 85.0078 30.9659 84.0192 30.4034C83.0362 29.8352 82.2777 29.0455 81.7436 28.0341C81.2152 27.017 80.951 25.8381 80.951 24.4972C80.951 23.1506 81.2152 21.9716 81.7436 20.9602C82.2777 19.9432 83.0362 19.1534 84.0192 18.5909C85.0078 18.0227 86.1896 17.7386 87.5646 17.7386C88.9396 17.7386 90.1186 18.0227 91.1016 18.5909C92.0902 19.1534 92.8487 19.9432 93.3771 20.9602C93.9112 21.9716 94.1783 23.1506 94.1783 24.4972C94.1783 25.8381 93.9112 27.017 93.3771 28.0341C92.8487 29.0455 92.0902 29.8352 91.1016 30.4034C90.1186 30.9659 88.9396 31.2472 87.5646 31.2472ZM87.5902 28.1023C88.0902 28.1023 88.5135 27.9489 88.8601 27.642C89.2067 27.3352 89.4709 26.9091 89.6527 26.3636C89.8402 25.8182 89.9339 25.1875 89.9339 24.4716C89.9339 23.7443 89.8402 23.108 89.6527 22.5625C89.4709 22.017 89.2067 21.5909 88.8601 21.2841C88.5135 20.9773 88.0902 20.8239 87.5902 20.8239C87.0732 20.8239 86.6357 20.9773 86.2777 21.2841C85.9254 21.5909 85.6555 22.017 85.468 22.5625C85.2862 23.108 85.1953 23.7443 85.1953 24.4716C85.1953 25.1875 85.2862 25.8182 85.468 26.3636C85.6555 26.9091 85.9254 27.3352 86.2777 27.642C86.6357 27.9489 87.0732 28.1023 87.5902 28.1023ZM112.157 19.8693H107.896C107.839 19.4318 107.722 19.0369 107.546 18.6847C107.37 18.3324 107.137 18.0312 106.847 17.7812C106.558 17.5312 106.214 17.3409 105.816 17.2102C105.424 17.0739 104.989 17.0057 104.512 17.0057C103.665 17.0057 102.935 17.2131 102.322 17.6278C101.714 18.0426 101.245 18.642 100.915 19.4261C100.592 20.2102 100.43 21.1591 100.43 22.2727C100.43 23.4318 100.594 24.4034 100.924 25.1875C101.259 25.9659 101.728 26.554 102.33 26.9517C102.938 27.3437 103.657 27.5398 104.487 27.5398C104.952 27.5398 105.376 27.4801 105.756 27.3608C106.143 27.2415 106.481 27.0682 106.771 26.8409C107.066 26.608 107.308 26.3267 107.495 25.9972C107.688 25.6619 107.822 25.2841 107.896 24.8636L112.157 24.8892C112.083 25.6619 111.859 26.4233 111.484 27.1733C111.114 27.9233 110.606 28.608 109.958 29.2273C109.31 29.8409 108.521 30.3295 107.589 30.6932C106.663 31.0568 105.6 31.2386 104.401 31.2386C102.822 31.2386 101.407 30.892 100.157 30.1989C98.9126 29.5 97.9297 28.483 97.2081 27.1477C96.4865 25.8125 96.1257 24.1875 96.1257 22.2727C96.1257 20.3523 96.4922 18.7244 97.2251 17.3892C97.9581 16.054 98.9496 15.0398 100.2 14.3466C101.45 13.6534 102.85 13.3068 104.401 13.3068C105.458 13.3068 106.435 13.4545 107.333 13.75C108.231 14.0398 109.021 14.4659 109.702 15.0284C110.384 15.5852 110.938 16.2699 111.364 17.0824C111.79 17.8949 112.055 18.8239 112.157 19.8693ZM118.261 31.2216C117.426 31.2216 116.685 31.0824 116.037 30.804C115.395 30.5199 114.886 30.0937 114.511 29.5256C114.142 28.9517 113.957 28.233 113.957 27.3693C113.957 26.642 114.085 26.0284 114.341 25.5284C114.597 25.0284 114.949 24.6222 115.398 24.3097C115.847 23.9972 116.364 23.7614 116.949 23.6023C117.534 23.4375 118.159 23.3267 118.824 23.2699C119.568 23.2017 120.168 23.1307 120.622 23.0568C121.077 22.9773 121.406 22.8665 121.611 22.7244C121.821 22.5767 121.926 22.3693 121.926 22.1023V22.0597C121.926 21.6222 121.776 21.2841 121.474 21.0455C121.173 20.8068 120.767 20.6875 120.256 20.6875C119.705 20.6875 119.261 20.8068 118.926 21.0455C118.591 21.2841 118.378 21.6136 118.287 22.0341L114.443 21.8977C114.557 21.1023 114.849 20.392 115.321 19.767C115.798 19.1364 116.452 18.642 117.281 18.2841C118.116 17.9205 119.119 17.7386 120.29 17.7386C121.125 17.7386 121.895 17.8381 122.599 18.0369C123.304 18.2301 123.918 18.5142 124.44 18.8892C124.963 19.2585 125.366 19.7131 125.651 20.2528C125.94 20.7926 126.085 21.4091 126.085 22.1023V31H122.165V29.1761H122.062C121.83 29.6193 121.531 29.9943 121.168 30.3011C120.81 30.608 120.386 30.8381 119.898 30.9915C119.415 31.1449 118.869 31.2216 118.261 31.2216ZM119.548 28.4943C119.997 28.4943 120.401 28.4034 120.759 28.2216C121.122 28.0398 121.412 27.7898 121.628 27.4716C121.844 27.1477 121.952 26.7727 121.952 26.3466V25.1023C121.832 25.1648 121.688 25.2216 121.517 25.2727C121.352 25.3239 121.17 25.3722 120.972 25.4176C120.773 25.4631 120.568 25.5028 120.358 25.5369C120.148 25.571 119.946 25.6023 119.753 25.6307C119.361 25.6932 119.026 25.7898 118.747 25.9205C118.474 26.0511 118.264 26.2216 118.116 26.4318C117.974 26.6364 117.903 26.8807 117.903 27.1648C117.903 27.5966 118.057 27.9261 118.364 28.1534C118.676 28.3807 119.071 28.4943 119.548 28.4943ZM128.634 31V17.9091H132.682V20.2955H132.818C133.057 19.4318 133.446 18.7898 133.986 18.3693C134.526 17.9432 135.153 17.7301 135.869 17.7301C136.063 17.7301 136.261 17.7443 136.466 17.7727C136.67 17.7955 136.861 17.8324 137.037 17.8835V21.5057C136.838 21.4375 136.577 21.3835 136.253 21.3438C135.935 21.304 135.651 21.2841 135.401 21.2841C134.906 21.2841 134.46 21.3949 134.062 21.6165C133.67 21.8324 133.361 22.1364 133.134 22.5284C132.912 22.9148 132.801 23.3693 132.801 23.892V31H128.634ZM146.734 17.9091V20.9773H138.475V17.9091H146.734ZM140.205 14.7727H144.373V26.8835C144.373 27.1392 144.413 27.3466 144.492 27.5057C144.577 27.6591 144.7 27.7699 144.859 27.8381C145.018 27.9006 145.208 27.9318 145.43 27.9318C145.589 27.9318 145.756 27.9176 145.933 27.8892C146.114 27.8551 146.251 27.8267 146.342 27.804L146.972 30.8125C146.773 30.8693 146.492 30.9403 146.129 31.0256C145.771 31.1108 145.342 31.1648 144.842 31.1875C143.864 31.233 143.026 31.1193 142.327 30.8466C141.634 30.5682 141.103 30.1364 140.734 29.5511C140.37 28.9659 140.194 28.2301 140.205 27.3438V14.7727Z" fill="black"/>
</svg>
