<svg width="24" height="24" viewBox="0 0 24 24" fill="none" xmlns="http://www.w3.org/2000/svg">
<path d="M9.827 21.763C5.35 20.771 2 16.777 2 12C2 10.178 2.487 8.47001 3.339 6.99801L7.622 14.417C8.10319 15.2891 8.83394 15.9976 9.72053 16.4516C10.6071 16.9056 11.6091 17.0844 12.598 16.965L9.828 21.763H9.827ZM12 22L16.287 14.575C16.7549 13.7977 17.0015 12.9073 17 12C17.0016 10.9179 16.6505 9.86474 16 9.00001H21.542C21.8467 9.97081 22.0012 10.9825 22 12C22 17.523 17.523 22 12 22ZM14.572 13.545C14.3033 13.9929 13.9222 14.3629 13.4666 14.6183C13.0109 14.8737 12.4965 15.0057 11.9741 15.0012C11.4518 14.9966 10.9397 14.8557 10.4886 14.5924C10.0374 14.3291 9.66287 13.9526 9.402 13.5L9.373 13.45C9.11977 12.9911 8.99118 12.4739 9.00004 11.9498C9.0089 11.4258 9.15489 10.9132 9.42349 10.4631C9.69209 10.0131 10.0739 9.64123 10.5309 9.38464C10.9879 9.12805 11.5042 8.99567 12.0283 9.00069C12.5524 9.0057 13.0661 9.14794 13.5181 9.41323C13.9701 9.67852 14.3447 10.0576 14.6047 10.5127C14.8646 10.9679 15.0008 11.4831 14.9996 12.0073C14.9984 12.5314 14.86 13.046 14.598 13.5L14.572 13.545ZM4.632 5.23901C5.56774 4.2169 6.7062 3.40099 7.97478 2.84331C9.24337 2.28564 10.6142 1.99843 12 2.00001C13.7557 1.99929 15.4807 2.46104 17.0013 3.33878C18.5219 4.21652 19.7845 5.47929 20.662 7.00001H12C11.0205 6.9998 10.0626 7.28721 9.24501 7.82657C8.42744 8.36593 7.78624 9.13349 7.401 10.034L4.632 5.23901Z" fill="white"/>
</svg>
