<svg width="120" height="120" viewBox="0 0 120 120" fill="none" xmlns="http://www.w3.org/2000/svg">
<path d="M40.3036 47.5901C56.0152 40.0759 68.3112 27.3245 75.37 11.3852C70.8159 6.60341 64.8956 3.18785 58.5199 1.13852L55.1043 0C54.8766 0.455408 54.6489 1.13855 54.6489 1.59396C49.184 17.0778 38.0266 29.6015 22.9981 36.6603C12.5237 41.6698 4.78178 50.778 1.13852 61.7078L0 65.1233C0.455408 65.351 1.13853 65.5787 1.59394 65.5787C5.92031 67.1726 10.2467 69.222 14.3454 71.7267C20.038 61.4801 29.1461 52.8273 40.3036 47.5901Z" fill="#087443"/>
<path d="M106.338 48.501C97.9125 61.2524 86.2997 71.4991 71.9543 78.3302C60.3414 83.7951 51.4609 94.0418 47.3623 106.338L46.2238 110.209C50.5501 114.08 55.7873 117.04 61.4799 118.862L64.8955 120C65.1232 119.545 65.3509 118.862 65.3509 118.406C70.8158 102.922 81.9733 90.3985 97.0017 83.3397C107.476 78.3302 115.446 69.2221 118.861 58.2923L120 54.8767C115.218 53.5105 110.664 51.2334 106.338 48.501Z" fill="#16B364"/>
<path d="M37.1158 98.3678C42.8084 84.7056 53.2828 73.548 66.7173 67.1723C79.0133 61.252 89.26 52.1439 96.3188 40.9864C91.0816 35.9769 86.7552 30.2843 83.5674 23.4532C75.1423 38.937 61.9355 51.4608 45.7686 59.2027C36.4327 63.5291 28.9185 71.0433 24.3644 80.1515C29.3739 84.9333 33.4725 90.8535 36.6604 97.4569C36.6604 97.4569 36.8881 97.9124 37.1158 98.3678Z" fill="#099250"/>
</svg>
